<mxfile host="app.diagrams.net" modified="2024-06-21T10:36:15.421Z" agent="Mozilla/5.0 (X11; Linux x86_64) AppleWebKit/537.36 (KHTML, like Gecko) Chrome/126.0.0.0 Safari/537.36" etag="KLGmx1JDLHQ71U7aCeY6" version="24.5.1" type="device" pages="2">
  <diagram name="Страница — 1" id="Sb1mQLU_Z6t6szUFk5oL">
    <mxGraphModel dx="639" dy="347" grid="1" gridSize="10" guides="1" tooltips="1" connect="1" arrows="1" fold="1" page="1" pageScale="1" pageWidth="827" pageHeight="1169" math="0" shadow="0">
      <root>
        <mxCell id="0" />
        <mxCell id="1" parent="0" />
        <object placeholders="1" c4Name="Користувач" c4Type="User" c4Description="Користувач системи" label="&lt;font style=&quot;font-size: 16px&quot;&gt;&lt;b&gt;%c4Name%&lt;/b&gt;&lt;/font&gt;&lt;div&gt;[%c4Type%]&lt;/div&gt;&lt;br&gt;&lt;div&gt;&lt;font style=&quot;font-size: 11px&quot;&gt;&lt;font color=&quot;#cccccc&quot;&gt;%c4Description%&lt;/font&gt;&lt;/div&gt;" id="a7k5kMT6nM6mZqfxtjz9-1">
          <mxCell style="html=1;fontSize=11;dashed=0;whiteSpace=wrap;fillColor=#083F75;strokeColor=#06315C;fontColor=#ffffff;shape=mxgraph.c4.person2;align=center;metaEdit=1;points=[[0.5,0,0],[1,0.5,0],[1,0.75,0],[0.75,1,0],[0.5,1,0],[0.25,1,0],[0,0.75,0],[0,0.5,0]];resizable=0;" parent="1" vertex="1">
            <mxGeometry x="119" y="40" width="200" height="180" as="geometry" />
          </mxCell>
        </object>
        <object placeholders="1" c4Name="KexitDrive" c4Type="Software System" c4Description="Хмарне файлове сховище із можливістю програвати файли будь-яких типів онлайн" label="&lt;font style=&quot;font-size: 16px&quot;&gt;&lt;b&gt;%c4Name%&lt;/b&gt;&lt;/font&gt;&lt;div&gt;[%c4Type%]&lt;/div&gt;&lt;br&gt;&lt;div&gt;&lt;font style=&quot;font-size: 11px&quot;&gt;&lt;font color=&quot;#cccccc&quot;&gt;%c4Description%&lt;/font&gt;&lt;/div&gt;" id="a7k5kMT6nM6mZqfxtjz9-4">
          <mxCell style="rounded=1;whiteSpace=wrap;html=1;labelBackgroundColor=none;fillColor=#1061B0;fontColor=#ffffff;align=center;arcSize=10;strokeColor=#0D5091;metaEdit=1;resizable=0;points=[[0.25,0,0],[0.5,0,0],[0.75,0,0],[1,0.25,0],[1,0.5,0],[1,0.75,0],[0.75,1,0],[0.5,1,0],[0.25,1,0],[0,0.75,0],[0,0.5,0],[0,0.25,0]];" parent="1" vertex="1">
            <mxGeometry x="99" y="330" width="240" height="120" as="geometry" />
          </mxCell>
        </object>
        <object placeholders="1" c4Type="Relationship" c4Technology="JSON/HTTP" c4Description="Завантажує файли із ПК &#xa;та імпортує з Google Drive, &#xa;програває їх онлайн у браузері" label="&lt;div style=&quot;text-align: left&quot;&gt;&lt;div style=&quot;text-align: center&quot;&gt;&lt;b&gt;%c4Description%&lt;/b&gt;&lt;/div&gt;&lt;div style=&quot;text-align: center&quot;&gt;[%c4Technology%]&lt;/div&gt;&lt;/div&gt;" id="a7k5kMT6nM6mZqfxtjz9-6">
          <mxCell style="endArrow=blockThin;html=1;fontSize=10;fontColor=#404040;strokeWidth=1;endFill=1;strokeColor=#828282;elbow=vertical;metaEdit=1;endSize=14;startSize=14;jumpStyle=arc;jumpSize=16;rounded=0;edgeStyle=orthogonalEdgeStyle;exitX=0.5;exitY=1;exitDx=0;exitDy=0;exitPerimeter=0;entryX=0.5;entryY=0;entryDx=0;entryDy=0;entryPerimeter=0;" parent="1" source="a7k5kMT6nM6mZqfxtjz9-1" target="a7k5kMT6nM6mZqfxtjz9-4" edge="1">
            <mxGeometry width="240" relative="1" as="geometry">
              <mxPoint x="80" y="240" as="sourcePoint" />
              <mxPoint x="320" y="240" as="targetPoint" />
              <Array as="points">
                <mxPoint x="219" y="320" />
              </Array>
            </mxGeometry>
          </mxCell>
        </object>
        <object placeholders="1" c4Name="Google Drive" c4Type="External Software System" c4Description="Хмарне файлове сховище Google Drive" label="&lt;font style=&quot;font-size: 16px&quot;&gt;&lt;b&gt;%c4Name%&lt;/b&gt;&lt;/font&gt;&lt;div&gt;[%c4Type%]&lt;/div&gt;&lt;br&gt;&lt;div&gt;&lt;font style=&quot;font-size: 11px&quot;&gt;&lt;font color=&quot;#cccccc&quot;&gt;%c4Description%&lt;/font&gt;&lt;/div&gt;" id="a7k5kMT6nM6mZqfxtjz9-9">
          <mxCell style="rounded=1;whiteSpace=wrap;html=1;labelBackgroundColor=none;fillColor=#8C8496;fontColor=#ffffff;align=center;arcSize=10;strokeColor=#736782;metaEdit=1;resizable=0;points=[[0.25,0,0],[0.5,0,0],[0.75,0,0],[1,0.25,0],[1,0.5,0],[1,0.75,0],[0.75,1,0],[0.5,1,0],[0.25,1,0],[0,0.75,0],[0,0.5,0],[0,0.25,0]];" parent="1" vertex="1">
            <mxGeometry x="98" y="570" width="240" height="120" as="geometry" />
          </mxCell>
        </object>
        <object placeholders="1" c4Type="Relationship" c4Technology="JSON/HTTP, OAuth2" c4Description="Імпоортує файли та їх метадані" label="&lt;div style=&quot;text-align: left&quot;&gt;&lt;div style=&quot;text-align: center&quot;&gt;&lt;b&gt;%c4Description%&lt;/b&gt;&lt;/div&gt;&lt;div style=&quot;text-align: center&quot;&gt;[%c4Technology%]&lt;/div&gt;&lt;/div&gt;" id="a7k5kMT6nM6mZqfxtjz9-10">
          <mxCell style="endArrow=blockThin;html=1;fontSize=10;fontColor=#404040;strokeWidth=1;endFill=1;strokeColor=#828282;elbow=vertical;metaEdit=1;endSize=14;startSize=14;jumpStyle=arc;jumpSize=16;rounded=0;edgeStyle=orthogonalEdgeStyle;exitX=0.5;exitY=1;exitDx=0;exitDy=0;exitPerimeter=0;" parent="1" source="a7k5kMT6nM6mZqfxtjz9-4" target="a7k5kMT6nM6mZqfxtjz9-9" edge="1">
            <mxGeometry width="240" relative="1" as="geometry">
              <mxPoint x="410" y="370" as="sourcePoint" />
              <mxPoint x="650" y="370" as="targetPoint" />
            </mxGeometry>
          </mxCell>
        </object>
        <object placeholders="1" c4Name="Користувач" c4Type="User" c4Description="Користувач системи" label="&lt;font style=&quot;font-size: 16px&quot;&gt;&lt;b&gt;%c4Name%&lt;/b&gt;&lt;/font&gt;&lt;div&gt;[%c4Type%]&lt;/div&gt;&lt;br&gt;&lt;div&gt;&lt;font style=&quot;font-size: 11px&quot;&gt;&lt;font color=&quot;#cccccc&quot;&gt;%c4Description%&lt;/font&gt;&lt;/div&gt;" id="luPg7t2bCNn7MTMSEGl3-1">
          <mxCell style="html=1;fontSize=11;dashed=0;whiteSpace=wrap;fillColor=#083F75;strokeColor=#06315C;fontColor=#ffffff;shape=mxgraph.c4.person2;align=center;metaEdit=1;points=[[0.5,0,0],[1,0.5,0],[1,0.75,0],[0.75,1,0],[0.5,1,0],[0.25,1,0],[0,0.75,0],[0,0.5,0]];resizable=0;" parent="1" vertex="1">
            <mxGeometry x="460" y="210" width="200" height="180" as="geometry" />
          </mxCell>
        </object>
        <object placeholders="1" c4Name="Kexit Drive" c4Type="SystemScopeBoundary" c4Application="Kexit Drive cloud file storage" label="&lt;font style=&quot;font-size: 16px&quot;&gt;&lt;b&gt;&lt;div style=&quot;text-align: left&quot;&gt;%c4Name%&lt;/div&gt;&lt;/b&gt;&lt;/font&gt;&lt;div style=&quot;text-align: left&quot;&gt;[%c4Application%]&lt;/div&gt;" id="luPg7t2bCNn7MTMSEGl3-2">
          <mxCell style="rounded=1;fontSize=11;whiteSpace=wrap;html=1;dashed=1;arcSize=20;fillColor=none;strokeColor=#666666;fontColor=#333333;labelBackgroundColor=none;align=left;verticalAlign=bottom;labelBorderColor=none;spacingTop=0;spacing=10;dashPattern=8 4;metaEdit=1;rotatable=0;perimeter=rectanglePerimeter;noLabel=0;labelPadding=0;allowArrows=0;connectable=0;expand=0;recursiveResize=0;editable=1;pointerEvents=0;absoluteArcSize=1;points=[[0.25,0,0],[0.5,0,0],[0.75,0,0],[1,0.25,0],[1,0.5,0],[1,0.75,0],[0.75,1,0],[0.5,1,0],[0.25,1,0],[0,0.75,0],[0,0.5,0],[0,0.25,0]];" parent="1" vertex="1">
            <mxGeometry x="710" y="60" width="1050" height="700" as="geometry" />
          </mxCell>
        </object>
        <object placeholders="1" c4Type="Relationship" c4Description="" label="&lt;div style=&quot;text-align: left&quot;&gt;&lt;div style=&quot;text-align: center&quot;&gt;&lt;b&gt;%c4Description%&lt;/b&gt;&lt;/div&gt;" id="luPg7t2bCNn7MTMSEGl3-6">
          <mxCell style="endArrow=blockThin;html=1;fontSize=10;fontColor=#404040;strokeWidth=1;endFill=1;strokeColor=#828282;elbow=vertical;metaEdit=1;endSize=14;startSize=14;jumpStyle=arc;jumpSize=16;rounded=0;edgeStyle=orthogonalEdgeStyle;exitX=0.5;exitY=0;exitDx=0;exitDy=0;exitPerimeter=0;entryX=0;entryY=0.5;entryDx=0;entryDy=0;entryPerimeter=0;" parent="1" source="luPg7t2bCNn7MTMSEGl3-20" target="luPg7t2bCNn7MTMSEGl3-21" edge="1">
            <mxGeometry width="240" relative="1" as="geometry">
              <mxPoint x="910" y="300" as="sourcePoint" />
              <mxPoint x="1080" y="240" as="targetPoint" />
            </mxGeometry>
          </mxCell>
        </object>
        <object placeholders="1" c4Type="Relationship" c4Description="" label="&lt;div style=&quot;text-align: left&quot;&gt;&lt;div style=&quot;text-align: center&quot;&gt;&lt;b&gt;%c4Description%&lt;/b&gt;&lt;/div&gt;" id="luPg7t2bCNn7MTMSEGl3-7">
          <mxCell style="endArrow=blockThin;html=1;fontSize=10;fontColor=#404040;strokeWidth=1;endFill=1;strokeColor=#828282;elbow=vertical;metaEdit=1;endSize=14;startSize=14;jumpStyle=arc;jumpSize=16;rounded=0;edgeStyle=orthogonalEdgeStyle;exitX=0.5;exitY=1;exitDx=0;exitDy=0;exitPerimeter=0;entryX=0;entryY=0.5;entryDx=0;entryDy=0;entryPerimeter=0;" parent="1" source="luPg7t2bCNn7MTMSEGl3-20" target="luPg7t2bCNn7MTMSEGl3-18" edge="1">
            <mxGeometry width="240" relative="1" as="geometry">
              <mxPoint x="910" y="420" as="sourcePoint" />
              <mxPoint x="1070" y="520" as="targetPoint" />
            </mxGeometry>
          </mxCell>
        </object>
        <object placeholders="1" c4Type="Relationship" c4Description="" label="&lt;div style=&quot;text-align: left&quot;&gt;&lt;div style=&quot;text-align: center&quot;&gt;&lt;b&gt;%c4Description%&lt;/b&gt;&lt;/div&gt;" id="luPg7t2bCNn7MTMSEGl3-8">
          <mxCell style="endArrow=blockThin;html=1;fontSize=10;fontColor=#404040;strokeWidth=1;endFill=1;strokeColor=#828282;elbow=vertical;metaEdit=1;endSize=14;startSize=14;jumpStyle=arc;jumpSize=16;rounded=0;edgeStyle=orthogonalEdgeStyle;entryX=0;entryY=0.5;entryDx=0;entryDy=0;entryPerimeter=0;" parent="1" source="luPg7t2bCNn7MTMSEGl3-1" target="luPg7t2bCNn7MTMSEGl3-20" edge="1">
            <mxGeometry width="240" relative="1" as="geometry">
              <mxPoint x="720" y="490" as="sourcePoint" />
              <mxPoint x="730" y="360" as="targetPoint" />
            </mxGeometry>
          </mxCell>
        </object>
        <object placeholders="1" c4Name="Mongo" c4Type="Container" c4Technology="MongoDB 6.0.3" c4Description="Database for storing files and metadata" label="&lt;font style=&quot;font-size: 16px&quot;&gt;&lt;b&gt;%c4Name%&lt;/b&gt;&lt;/font&gt;&lt;div&gt;[%c4Type%:&amp;nbsp;%c4Technology%]&lt;/div&gt;&lt;br&gt;&lt;div&gt;&lt;font style=&quot;font-size: 11px&quot;&gt;&lt;font color=&quot;#E6E6E6&quot;&gt;%c4Description%&lt;/font&gt;&lt;/div&gt;" id="luPg7t2bCNn7MTMSEGl3-10">
          <mxCell style="shape=cylinder3;size=15;whiteSpace=wrap;html=1;boundedLbl=1;rounded=0;labelBackgroundColor=none;fillColor=#23A2D9;fontSize=12;fontColor=#ffffff;align=center;strokeColor=#0E7DAD;metaEdit=1;points=[[0.5,0,0],[1,0.25,0],[1,0.5,0],[1,0.75,0],[0.5,1,0],[0,0.75,0],[0,0.5,0],[0,0.25,0]];resizable=0;" parent="1" vertex="1">
            <mxGeometry x="780" y="600" width="240" height="120" as="geometry" />
          </mxCell>
        </object>
        <object placeholders="1" c4Name="RabbitMQ" c4Type="Container" c4Technology="RabbitMQ 3.9.7" c4Description="Stands for delivery guarantee of files import from Google Drive" label="&lt;font style=&quot;font-size: 16px&quot;&gt;&lt;b&gt;%c4Name%&lt;/b&gt;&lt;/font&gt;&lt;div&gt;[%c4Type%:&amp;nbsp;%c4Technology%]&lt;/div&gt;&lt;br&gt;&lt;div&gt;&lt;font style=&quot;font-size: 11px&quot;&gt;&lt;font color=&quot;#E6E6E6&quot;&gt;%c4Description%&lt;/font&gt;&lt;/div&gt;" id="luPg7t2bCNn7MTMSEGl3-12">
          <mxCell style="shape=cylinder3;size=15;direction=south;whiteSpace=wrap;html=1;boundedLbl=1;rounded=0;labelBackgroundColor=none;fillColor=#23A2D9;fontSize=12;fontColor=#ffffff;align=center;strokeColor=#0E7DAD;metaEdit=1;points=[[0.5,0,0],[1,0.25,0],[1,0.5,0],[1,0.75,0],[0.5,1,0],[0,0.75,0],[0,0.5,0],[0,0.25,0]];resizable=0;" parent="1" vertex="1">
            <mxGeometry x="1160" y="600" width="240" height="120" as="geometry" />
          </mxCell>
        </object>
        <object placeholders="1" c4Name="Google Drive" c4Type="External Software System" c4Description="Cloud file storage Google Drive" label="&lt;font style=&quot;font-size: 16px&quot;&gt;&lt;b&gt;%c4Name%&lt;/b&gt;&lt;/font&gt;&lt;div&gt;[%c4Type%]&lt;/div&gt;&lt;br&gt;&lt;div&gt;&lt;font style=&quot;font-size: 11px&quot;&gt;&lt;font color=&quot;#cccccc&quot;&gt;%c4Description%&lt;/font&gt;&lt;/div&gt;" id="luPg7t2bCNn7MTMSEGl3-13">
          <mxCell style="rounded=1;whiteSpace=wrap;html=1;labelBackgroundColor=none;fillColor=#8C8496;fontColor=#ffffff;align=center;arcSize=10;strokeColor=#736782;metaEdit=1;resizable=0;points=[[0.25,0,0],[0.5,0,0],[0.75,0,0],[1,0.25,0],[1,0.5,0],[1,0.75,0],[0.75,1,0],[0.5,1,0],[0.25,1,0],[0,0.75,0],[0,0.5,0],[0,0.25,0]];" parent="1" vertex="1">
            <mxGeometry x="440" y="510" width="240" height="120" as="geometry" />
          </mxCell>
        </object>
        <object placeholders="1" c4Name="Kexit Core" c4Type="Container" c4Technology="Spring Boot" c4Description="Kexit backend API " label="&lt;font style=&quot;font-size: 16px&quot;&gt;&lt;b&gt;%c4Name%&lt;/b&gt;&lt;/font&gt;&lt;div&gt;[%c4Type%: %c4Technology%]&lt;/div&gt;&lt;br&gt;&lt;div&gt;&lt;font style=&quot;font-size: 11px&quot;&gt;&lt;font color=&quot;#E6E6E6&quot;&gt;%c4Description%&lt;/font&gt;&lt;/div&gt;" id="luPg7t2bCNn7MTMSEGl3-18">
          <mxCell style="rounded=1;whiteSpace=wrap;html=1;fontSize=11;labelBackgroundColor=none;fillColor=#23A2D9;fontColor=#ffffff;align=center;arcSize=10;strokeColor=#0E7DAD;metaEdit=1;resizable=0;points=[[0.25,0,0],[0.5,0,0],[0.75,0,0],[1,0.25,0],[1,0.5,0],[1,0.75,0],[0.75,1,0],[0.5,1,0],[0.25,1,0],[0,0.75,0],[0,0.5,0],[0,0.25,0]];" parent="1" vertex="1">
            <mxGeometry x="1050" y="420" width="240" height="120" as="geometry" />
          </mxCell>
        </object>
        <object placeholders="1" c4Name="API Gateway" c4Type="Container" c4Technology="Spring Cloud Gateway" c4Description="Routes requests to Kexit-Core and Kexit-Frontend according to url prefix" label="&lt;font style=&quot;font-size: 16px&quot;&gt;&lt;b&gt;%c4Name%&lt;/b&gt;&lt;/font&gt;&lt;div&gt;[%c4Type%: %c4Technology%]&lt;/div&gt;&lt;br&gt;&lt;div&gt;&lt;font style=&quot;font-size: 11px&quot;&gt;&lt;font color=&quot;#E6E6E6&quot;&gt;%c4Description%&lt;/font&gt;&lt;/div&gt;" id="luPg7t2bCNn7MTMSEGl3-20">
          <mxCell style="rounded=1;whiteSpace=wrap;html=1;fontSize=11;labelBackgroundColor=none;fillColor=#23A2D9;fontColor=#ffffff;align=center;arcSize=10;strokeColor=#0E7DAD;metaEdit=1;resizable=0;points=[[0.25,0,0],[0.5,0,0],[0.75,0,0],[1,0.25,0],[1,0.5,0],[1,0.75,0],[0.75,1,0],[0.5,1,0],[0.25,1,0],[0,0.75,0],[0,0.5,0],[0,0.25,0]];" parent="1" vertex="1">
            <mxGeometry x="740" y="240" width="240" height="120" as="geometry" />
          </mxCell>
        </object>
        <object placeholders="1" c4Name="Kexit Client" c4Type="Container" c4Technology="Svelte Kit" c4Description="UI frontend client for kexit Drive" label="&lt;font style=&quot;font-size: 16px&quot;&gt;&lt;b&gt;%c4Name%&lt;/b&gt;&lt;/font&gt;&lt;div&gt;[%c4Type%: %c4Technology%]&lt;/div&gt;&lt;br&gt;&lt;div&gt;&lt;font style=&quot;font-size: 11px&quot;&gt;&lt;font color=&quot;#E6E6E6&quot;&gt;%c4Description%&lt;/font&gt;&lt;/div&gt;" id="luPg7t2bCNn7MTMSEGl3-21">
          <mxCell style="rounded=1;whiteSpace=wrap;html=1;fontSize=11;labelBackgroundColor=none;fillColor=#23A2D9;fontColor=#ffffff;align=center;arcSize=10;strokeColor=#0E7DAD;metaEdit=1;resizable=0;points=[[0.25,0,0],[0.5,0,0],[0.75,0,0],[1,0.25,0],[1,0.5,0],[1,0.75,0],[0.75,1,0],[0.5,1,0],[0.25,1,0],[0,0.75,0],[0,0.5,0],[0,0.25,0]];" parent="1" vertex="1">
            <mxGeometry x="1060" y="90" width="240" height="120" as="geometry" />
          </mxCell>
        </object>
        <object placeholders="1" c4Name="Eureka Server" c4Type="Container" c4Technology="Spring Cloud Eureka Server" c4Description="LoadBalancer and Service Discovery pattern implementation" label="&lt;font style=&quot;font-size: 16px&quot;&gt;&lt;b&gt;%c4Name%&lt;/b&gt;&lt;/font&gt;&lt;div&gt;[%c4Type%: %c4Technology%]&lt;/div&gt;&lt;br&gt;&lt;div&gt;&lt;font style=&quot;font-size: 11px&quot;&gt;&lt;font color=&quot;#E6E6E6&quot;&gt;%c4Description%&lt;/font&gt;&lt;/div&gt;" id="luPg7t2bCNn7MTMSEGl3-22">
          <mxCell style="rounded=1;whiteSpace=wrap;html=1;fontSize=11;labelBackgroundColor=none;fillColor=#23A2D9;fontColor=#ffffff;align=center;arcSize=10;strokeColor=#0E7DAD;metaEdit=1;resizable=0;points=[[0.25,0,0],[0.5,0,0],[0.75,0,0],[1,0.25,0],[1,0.5,0],[1,0.75,0],[0.75,1,0],[0.5,1,0],[0.25,1,0],[0,0.75,0],[0,0.5,0],[0,0.25,0]];" parent="1" vertex="1">
            <mxGeometry x="1050" y="240" width="240" height="120" as="geometry" />
          </mxCell>
        </object>
        <object placeholders="1" c4Type="Relationship" c4Description="" label="&lt;div style=&quot;text-align: left&quot;&gt;&lt;div style=&quot;text-align: center&quot;&gt;&lt;b&gt;%c4Description%&lt;/b&gt;&lt;/div&gt;" id="luPg7t2bCNn7MTMSEGl3-25">
          <mxCell style="endArrow=blockThin;html=1;fontSize=10;fontColor=#404040;strokeWidth=1;endFill=1;strokeColor=#828282;elbow=vertical;metaEdit=1;endSize=14;startSize=14;jumpStyle=arc;jumpSize=16;rounded=0;edgeStyle=orthogonalEdgeStyle;exitX=1;exitY=0.5;exitDx=0;exitDy=0;exitPerimeter=0;entryX=0;entryY=0.5;entryDx=0;entryDy=0;entryPerimeter=0;" parent="1" source="luPg7t2bCNn7MTMSEGl3-20" target="luPg7t2bCNn7MTMSEGl3-22" edge="1">
            <mxGeometry width="240" relative="1" as="geometry">
              <mxPoint x="1000" y="340" as="sourcePoint" />
              <mxPoint x="1070" y="380" as="targetPoint" />
            </mxGeometry>
          </mxCell>
        </object>
        <object placeholders="1" c4Type="Relationship" c4Description="" label="&lt;div style=&quot;text-align: left&quot;&gt;&lt;div style=&quot;text-align: center&quot;&gt;&lt;b&gt;%c4Description%&lt;/b&gt;&lt;/div&gt;" id="luPg7t2bCNn7MTMSEGl3-26">
          <mxCell style="endArrow=blockThin;html=1;fontSize=10;fontColor=#404040;strokeWidth=1;endFill=1;strokeColor=#828282;elbow=vertical;metaEdit=1;endSize=14;startSize=14;jumpStyle=arc;jumpSize=16;rounded=0;edgeStyle=orthogonalEdgeStyle;exitX=0.5;exitY=0;exitDx=0;exitDy=0;exitPerimeter=0;entryX=0.5;entryY=1;entryDx=0;entryDy=0;entryPerimeter=0;" parent="1" source="luPg7t2bCNn7MTMSEGl3-18" target="luPg7t2bCNn7MTMSEGl3-22" edge="1">
            <mxGeometry width="240" relative="1" as="geometry">
              <mxPoint x="1260" y="390" as="sourcePoint" />
              <mxPoint x="1500" y="390" as="targetPoint" />
            </mxGeometry>
          </mxCell>
        </object>
        <object placeholders="1" c4Type="Relationship" id="luPg7t2bCNn7MTMSEGl3-28">
          <mxCell style="endArrow=blockThin;html=1;fontSize=10;fontColor=#404040;strokeWidth=1;endFill=1;strokeColor=#828282;elbow=vertical;metaEdit=1;endSize=14;startSize=14;jumpStyle=arc;jumpSize=16;rounded=0;edgeStyle=orthogonalEdgeStyle;exitX=0;exitY=0.75;exitDx=0;exitDy=0;exitPerimeter=0;entryX=0.5;entryY=0;entryDx=0;entryDy=0;entryPerimeter=0;" parent="1" source="luPg7t2bCNn7MTMSEGl3-18" target="luPg7t2bCNn7MTMSEGl3-10" edge="1">
            <mxGeometry width="240" relative="1" as="geometry">
              <mxPoint x="830" y="620" as="sourcePoint" />
              <mxPoint x="1070" y="620" as="targetPoint" />
            </mxGeometry>
          </mxCell>
        </object>
        <object placeholders="1" c4Type="Relationship" id="luPg7t2bCNn7MTMSEGl3-30">
          <mxCell style="endArrow=blockThin;html=1;fontSize=10;fontColor=#404040;strokeWidth=1;endFill=1;strokeColor=#828282;elbow=vertical;metaEdit=1;endSize=14;startSize=14;jumpStyle=arc;jumpSize=16;rounded=0;edgeStyle=orthogonalEdgeStyle;exitX=0.25;exitY=1;exitDx=0;exitDy=0;exitPerimeter=0;entryX=0.5;entryY=1;entryDx=0;entryDy=0;entryPerimeter=0;" parent="1" source="luPg7t2bCNn7MTMSEGl3-18" target="luPg7t2bCNn7MTMSEGl3-12" edge="1">
            <mxGeometry width="240" relative="1" as="geometry">
              <mxPoint x="1020" y="565" as="sourcePoint" />
              <mxPoint x="910" y="650" as="targetPoint" />
            </mxGeometry>
          </mxCell>
        </object>
        <object placeholders="1" c4Type="Relationship" id="luPg7t2bCNn7MTMSEGl3-31">
          <mxCell style="endArrow=blockThin;html=1;fontSize=10;fontColor=#404040;strokeWidth=1;endFill=1;strokeColor=#828282;elbow=vertical;metaEdit=1;endSize=14;startSize=14;jumpStyle=arc;jumpSize=16;rounded=0;edgeStyle=orthogonalEdgeStyle;exitX=0.5;exitY=0;exitDx=0;exitDy=0;exitPerimeter=0;entryX=1;entryY=0.75;entryDx=0;entryDy=0;entryPerimeter=0;" parent="1" source="luPg7t2bCNn7MTMSEGl3-12" target="luPg7t2bCNn7MTMSEGl3-18" edge="1">
            <mxGeometry width="240" relative="1" as="geometry">
              <mxPoint x="1030" y="575" as="sourcePoint" />
              <mxPoint x="920" y="660" as="targetPoint" />
            </mxGeometry>
          </mxCell>
        </object>
        <object placeholders="1" c4Name="Converter Microsoft Office" c4Type="Container" c4Technology="Spring Boot" c4Description="Converter Microsoft Office" label="&lt;font style=&quot;font-size: 16px&quot;&gt;&lt;b&gt;%c4Name%&lt;/b&gt;&lt;/font&gt;&lt;div&gt;[%c4Type%: %c4Technology%]&lt;/div&gt;&lt;br&gt;&lt;div&gt;&lt;font style=&quot;font-size: 11px&quot;&gt;&lt;font color=&quot;#E6E6E6&quot;&gt;%c4Description%&lt;/font&gt;&lt;/div&gt;" id="luPg7t2bCNn7MTMSEGl3-34">
          <mxCell style="rounded=1;whiteSpace=wrap;html=1;fontSize=11;labelBackgroundColor=none;fillColor=#23A2D9;fontColor=#ffffff;align=center;arcSize=10;strokeColor=#0E7DAD;metaEdit=1;resizable=0;points=[[0.25,0,0],[0.5,0,0],[0.75,0,0],[1,0.25,0],[1,0.5,0],[1,0.75,0],[0.75,1,0],[0.5,1,0],[0.25,1,0],[0,0.75,0],[0,0.5,0],[0,0.25,0]];" parent="1" vertex="1">
            <mxGeometry x="1480" y="240" width="240" height="120" as="geometry" />
          </mxCell>
        </object>
        <object placeholders="1" c4Type="Relationship" id="luPg7t2bCNn7MTMSEGl3-37">
          <mxCell style="endArrow=blockThin;html=1;fontSize=10;fontColor=#404040;strokeWidth=1;endFill=1;strokeColor=#828282;elbow=vertical;metaEdit=1;endSize=14;startSize=14;jumpStyle=arc;jumpSize=16;rounded=0;edgeStyle=orthogonalEdgeStyle;exitX=0;exitY=0.25;exitDx=0;exitDy=0;exitPerimeter=0;entryX=0.5;entryY=0;entryDx=0;entryDy=0;entryPerimeter=0;" parent="1" source="luPg7t2bCNn7MTMSEGl3-18" target="luPg7t2bCNn7MTMSEGl3-13" edge="1">
            <mxGeometry width="240" relative="1" as="geometry">
              <mxPoint x="1630" y="390" as="sourcePoint" />
              <mxPoint x="1870" y="390" as="targetPoint" />
            </mxGeometry>
          </mxCell>
        </object>
        <object placeholders="1" c4Type="Relationship" id="luPg7t2bCNn7MTMSEGl3-40">
          <mxCell style="endArrow=blockThin;html=1;fontSize=10;fontColor=#404040;strokeWidth=1;endFill=1;strokeColor=#828282;elbow=vertical;metaEdit=1;endSize=14;startSize=14;jumpStyle=arc;jumpSize=16;rounded=0;edgeStyle=orthogonalEdgeStyle;entryX=1;entryY=0.25;entryDx=0;entryDy=0;entryPerimeter=0;exitX=0;exitY=0.25;exitDx=0;exitDy=0;exitPerimeter=0;" parent="1" source="luPg7t2bCNn7MTMSEGl3-34" target="luPg7t2bCNn7MTMSEGl3-22" edge="1">
            <mxGeometry width="240" relative="1" as="geometry">
              <mxPoint x="1390" y="150" as="sourcePoint" />
              <mxPoint x="1830" y="350" as="targetPoint" />
              <Array as="points">
                <mxPoint x="1430" y="270" />
                <mxPoint x="1430" y="270" />
              </Array>
            </mxGeometry>
          </mxCell>
        </object>
        <object placeholders="1" c4Name="Getenberg" c4Type="Container" c4Technology="Getenberg" c4Description="Microsoft office documents converter service" label="&lt;font style=&quot;font-size: 16px&quot;&gt;&lt;b&gt;%c4Name%&lt;/b&gt;&lt;/font&gt;&lt;div&gt;[%c4Type%: %c4Technology%]&lt;/div&gt;&lt;br&gt;&lt;div&gt;&lt;font style=&quot;font-size: 11px&quot;&gt;&lt;font color=&quot;#E6E6E6&quot;&gt;%c4Description%&lt;/font&gt;&lt;/div&gt;" id="luPg7t2bCNn7MTMSEGl3-41">
          <mxCell style="rounded=1;whiteSpace=wrap;html=1;fontSize=11;labelBackgroundColor=none;fillColor=#23A2D9;fontColor=#ffffff;align=center;arcSize=10;strokeColor=#0E7DAD;metaEdit=1;resizable=0;points=[[0.25,0,0],[0.5,0,0],[0.75,0,0],[1,0.25,0],[1,0.5,0],[1,0.75,0],[0.75,1,0],[0.5,1,0],[0.25,1,0],[0,0.75,0],[0,0.5,0],[0,0.25,0]];" parent="1" vertex="1">
            <mxGeometry x="1480" y="80" width="240" height="120" as="geometry" />
          </mxCell>
        </object>
        <object placeholders="1" c4Type="Relationship" id="luPg7t2bCNn7MTMSEGl3-42">
          <mxCell style="endArrow=blockThin;html=1;fontSize=10;fontColor=#404040;strokeWidth=1;endFill=1;strokeColor=#828282;elbow=vertical;metaEdit=1;endSize=14;startSize=14;jumpStyle=arc;jumpSize=16;rounded=0;edgeStyle=orthogonalEdgeStyle;exitX=0.5;exitY=0;exitDx=0;exitDy=0;exitPerimeter=0;entryX=0.5;entryY=1;entryDx=0;entryDy=0;entryPerimeter=0;" parent="1" source="luPg7t2bCNn7MTMSEGl3-34" target="luPg7t2bCNn7MTMSEGl3-41" edge="1">
            <mxGeometry width="240" relative="1" as="geometry">
              <mxPoint x="1610" y="530" as="sourcePoint" />
              <mxPoint x="1850" y="530" as="targetPoint" />
            </mxGeometry>
          </mxCell>
        </object>
        <object placeholders="1" c4Name="Converter Audio" c4Type="Container" c4Technology="Spring Boot" c4Description="Converter audio formats to mp3" label="&lt;font style=&quot;font-size: 16px&quot;&gt;&lt;b&gt;%c4Name%&lt;/b&gt;&lt;/font&gt;&lt;div&gt;[%c4Type%: %c4Technology%]&lt;/div&gt;&lt;br&gt;&lt;div&gt;&lt;font style=&quot;font-size: 11px&quot;&gt;&lt;font color=&quot;#E6E6E6&quot;&gt;%c4Description%&lt;/font&gt;&lt;/div&gt;" id="luPg7t2bCNn7MTMSEGl3-43">
          <mxCell style="rounded=1;whiteSpace=wrap;html=1;fontSize=11;labelBackgroundColor=none;fillColor=#23A2D9;fontColor=#ffffff;align=center;arcSize=10;strokeColor=#0E7DAD;metaEdit=1;resizable=0;points=[[0.25,0,0],[0.5,0,0],[0.75,0,0],[1,0.25,0],[1,0.5,0],[1,0.75,0],[0.75,1,0],[0.5,1,0],[0.25,1,0],[0,0.75,0],[0,0.5,0],[0,0.25,0]];" parent="1" vertex="1">
            <mxGeometry x="1490" y="420" width="240" height="120" as="geometry" />
          </mxCell>
        </object>
        <object placeholders="1" c4Type="Relationship" id="luPg7t2bCNn7MTMSEGl3-44">
          <mxCell style="endArrow=blockThin;html=1;fontSize=10;fontColor=#404040;strokeWidth=1;endFill=1;strokeColor=#828282;elbow=vertical;metaEdit=1;endSize=14;startSize=14;jumpStyle=arc;jumpSize=16;rounded=0;edgeStyle=orthogonalEdgeStyle;exitX=1;exitY=0.5;exitDx=0;exitDy=0;exitPerimeter=0;entryX=0;entryY=0.5;entryDx=0;entryDy=0;entryPerimeter=0;" parent="1" source="luPg7t2bCNn7MTMSEGl3-18" target="luPg7t2bCNn7MTMSEGl3-43" edge="1">
            <mxGeometry width="240" relative="1" as="geometry">
              <mxPoint x="1530" y="660" as="sourcePoint" />
              <mxPoint x="1770" y="660" as="targetPoint" />
            </mxGeometry>
          </mxCell>
        </object>
        <object placeholders="1" c4Type="Relationship" id="luPg7t2bCNn7MTMSEGl3-45">
          <mxCell style="endArrow=blockThin;html=1;fontSize=10;fontColor=#404040;strokeWidth=1;endFill=1;strokeColor=#828282;elbow=vertical;metaEdit=1;endSize=14;startSize=14;jumpStyle=arc;jumpSize=16;rounded=0;edgeStyle=orthogonalEdgeStyle;exitX=0;exitY=0.25;exitDx=0;exitDy=0;exitPerimeter=0;entryX=1;entryY=0.5;entryDx=0;entryDy=0;entryPerimeter=0;" parent="1" source="luPg7t2bCNn7MTMSEGl3-43" target="luPg7t2bCNn7MTMSEGl3-22" edge="1">
            <mxGeometry width="240" relative="1" as="geometry">
              <mxPoint x="1500" y="660" as="sourcePoint" />
              <mxPoint x="1740" y="660" as="targetPoint" />
            </mxGeometry>
          </mxCell>
        </object>
        <object placeholders="1" c4Type="Relationship" id="luPg7t2bCNn7MTMSEGl3-46">
          <mxCell style="endArrow=blockThin;html=1;fontSize=10;fontColor=#404040;strokeWidth=1;endFill=1;strokeColor=#828282;elbow=vertical;metaEdit=1;endSize=14;startSize=14;jumpStyle=arc;jumpSize=16;rounded=0;edgeStyle=orthogonalEdgeStyle;exitX=1;exitY=0.5;exitDx=0;exitDy=0;exitPerimeter=0;entryX=0;entryY=0.75;entryDx=0;entryDy=0;entryPerimeter=0;" parent="1" source="luPg7t2bCNn7MTMSEGl3-18" target="luPg7t2bCNn7MTMSEGl3-34" edge="1">
            <mxGeometry width="240" relative="1" as="geometry">
              <mxPoint x="1310" y="440" as="sourcePoint" />
              <mxPoint x="1550" y="440" as="targetPoint" />
              <Array as="points">
                <mxPoint x="1340" y="480" />
                <mxPoint x="1340" y="330" />
              </Array>
            </mxGeometry>
          </mxCell>
        </object>
        <mxCell id="luPg7t2bCNn7MTMSEGl3-69" value="file_entity" style="swimlane;fontStyle=0;childLayout=stackLayout;horizontal=1;startSize=26;horizontalStack=0;resizeParent=1;resizeParentMax=0;resizeLast=0;collapsible=1;marginBottom=0;align=center;fontSize=14;fillColor=#d5e8d4;strokeColor=#82b366;" parent="1" vertex="1">
          <mxGeometry x="160" y="873" width="160" height="296" as="geometry" />
        </mxCell>
        <mxCell id="luPg7t2bCNn7MTMSEGl3-70" value="_id" style="text;strokeColor=none;fillColor=none;spacingLeft=4;spacingRight=4;overflow=hidden;rotatable=0;points=[[0,0.5],[1,0.5]];portConstraint=eastwest;fontSize=12;whiteSpace=wrap;html=1;" parent="luPg7t2bCNn7MTMSEGl3-69" vertex="1">
          <mxGeometry y="26" width="160" height="30" as="geometry" />
        </mxCell>
        <mxCell id="luPg7t2bCNn7MTMSEGl3-73" value="containingDirectoryId" style="text;strokeColor=none;fillColor=none;spacingLeft=4;spacingRight=4;overflow=hidden;rotatable=0;points=[[0,0.5],[1,0.5]];portConstraint=eastwest;fontSize=12;whiteSpace=wrap;html=1;" parent="luPg7t2bCNn7MTMSEGl3-69" vertex="1">
          <mxGeometry y="56" width="160" height="30" as="geometry" />
        </mxCell>
        <mxCell id="luPg7t2bCNn7MTMSEGl3-72" value="filename" style="text;strokeColor=none;fillColor=none;spacingLeft=4;spacingRight=4;overflow=hidden;rotatable=0;points=[[0,0.5],[1,0.5]];portConstraint=eastwest;fontSize=12;whiteSpace=wrap;html=1;" parent="luPg7t2bCNn7MTMSEGl3-69" vertex="1">
          <mxGeometry y="86" width="160" height="30" as="geometry" />
        </mxCell>
        <mxCell id="luPg7t2bCNn7MTMSEGl3-84" value="isDirectory" style="text;strokeColor=none;fillColor=none;spacingLeft=4;spacingRight=4;overflow=hidden;rotatable=0;points=[[0,0.5],[1,0.5]];portConstraint=eastwest;fontSize=12;whiteSpace=wrap;html=1;" parent="luPg7t2bCNn7MTMSEGl3-69" vertex="1">
          <mxGeometry y="116" width="160" height="30" as="geometry" />
        </mxCell>
        <mxCell id="luPg7t2bCNn7MTMSEGl3-85" value="created" style="text;strokeColor=none;fillColor=none;spacingLeft=4;spacingRight=4;overflow=hidden;rotatable=0;points=[[0,0.5],[1,0.5]];portConstraint=eastwest;fontSize=12;whiteSpace=wrap;html=1;" parent="luPg7t2bCNn7MTMSEGl3-69" vertex="1">
          <mxGeometry y="146" width="160" height="30" as="geometry" />
        </mxCell>
        <mxCell id="luPg7t2bCNn7MTMSEGl3-86" value="ownerUserExternalId" style="text;strokeColor=none;fillColor=none;spacingLeft=4;spacingRight=4;overflow=hidden;rotatable=0;points=[[0,0.5],[1,0.5]];portConstraint=eastwest;fontSize=12;whiteSpace=wrap;html=1;" parent="luPg7t2bCNn7MTMSEGl3-69" vertex="1">
          <mxGeometry y="176" width="160" height="30" as="geometry" />
        </mxCell>
        <mxCell id="luPg7t2bCNn7MTMSEGl3-87" value="metadata.contentType" style="text;strokeColor=none;fillColor=none;spacingLeft=4;spacingRight=4;overflow=hidden;rotatable=0;points=[[0,0.5],[1,0.5]];portConstraint=eastwest;fontSize=12;whiteSpace=wrap;html=1;" parent="luPg7t2bCNn7MTMSEGl3-69" vertex="1">
          <mxGeometry y="206" width="160" height="30" as="geometry" />
        </mxCell>
        <mxCell id="luPg7t2bCNn7MTMSEGl3-88" value="metadata.gridFsFileId" style="text;strokeColor=none;fillColor=none;spacingLeft=4;spacingRight=4;overflow=hidden;rotatable=0;points=[[0,0.5],[1,0.5]];portConstraint=eastwest;fontSize=12;whiteSpace=wrap;html=1;" parent="luPg7t2bCNn7MTMSEGl3-69" vertex="1">
          <mxGeometry y="236" width="160" height="30" as="geometry" />
        </mxCell>
        <mxCell id="luPg7t2bCNn7MTMSEGl3-98" value="metadata.isImported" style="text;strokeColor=none;fillColor=none;spacingLeft=4;spacingRight=4;overflow=hidden;rotatable=0;points=[[0,0.5],[1,0.5]];portConstraint=eastwest;fontSize=12;whiteSpace=wrap;html=1;" parent="luPg7t2bCNn7MTMSEGl3-69" vertex="1">
          <mxGeometry y="266" width="160" height="30" as="geometry" />
        </mxCell>
        <mxCell id="luPg7t2bCNn7MTMSEGl3-74" value="fs.files" style="swimlane;fontStyle=0;childLayout=stackLayout;horizontal=1;startSize=26;horizontalStack=0;resizeParent=1;resizeParentMax=0;resizeLast=0;collapsible=1;marginBottom=0;align=center;fontSize=14;fillColor=#dae8fc;strokeColor=#6c8ebf;" parent="1" vertex="1">
          <mxGeometry x="430" y="1041" width="160" height="202" as="geometry" />
        </mxCell>
        <mxCell id="luPg7t2bCNn7MTMSEGl3-75" value="_id" style="text;strokeColor=none;fillColor=none;spacingLeft=4;spacingRight=4;overflow=hidden;rotatable=0;points=[[0,0.5],[1,0.5]];portConstraint=eastwest;fontSize=12;whiteSpace=wrap;html=1;" parent="luPg7t2bCNn7MTMSEGl3-74" vertex="1">
          <mxGeometry y="26" width="160" height="26" as="geometry" />
        </mxCell>
        <mxCell id="luPg7t2bCNn7MTMSEGl3-76" value="chunkSize" style="text;strokeColor=none;fillColor=none;spacingLeft=4;spacingRight=4;overflow=hidden;rotatable=0;points=[[0,0.5],[1,0.5]];portConstraint=eastwest;fontSize=12;whiteSpace=wrap;html=1;" parent="luPg7t2bCNn7MTMSEGl3-74" vertex="1">
          <mxGeometry y="52" width="160" height="30" as="geometry" />
        </mxCell>
        <mxCell id="luPg7t2bCNn7MTMSEGl3-77" value="filename" style="text;strokeColor=none;fillColor=none;spacingLeft=4;spacingRight=4;overflow=hidden;rotatable=0;points=[[0,0.5],[1,0.5]];portConstraint=eastwest;fontSize=12;whiteSpace=wrap;html=1;" parent="luPg7t2bCNn7MTMSEGl3-74" vertex="1">
          <mxGeometry y="82" width="160" height="30" as="geometry" />
        </mxCell>
        <mxCell id="luPg7t2bCNn7MTMSEGl3-78" value="length" style="text;strokeColor=none;fillColor=none;spacingLeft=4;spacingRight=4;overflow=hidden;rotatable=0;points=[[0,0.5],[1,0.5]];portConstraint=eastwest;fontSize=12;whiteSpace=wrap;html=1;" parent="luPg7t2bCNn7MTMSEGl3-74" vertex="1">
          <mxGeometry y="112" width="160" height="30" as="geometry" />
        </mxCell>
        <mxCell id="luPg7t2bCNn7MTMSEGl3-100" value="uploadDate" style="text;strokeColor=none;fillColor=none;spacingLeft=4;spacingRight=4;overflow=hidden;rotatable=0;points=[[0,0.5],[1,0.5]];portConstraint=eastwest;fontSize=12;whiteSpace=wrap;html=1;" parent="luPg7t2bCNn7MTMSEGl3-74" vertex="1">
          <mxGeometry y="142" width="160" height="30" as="geometry" />
        </mxCell>
        <mxCell id="luPg7t2bCNn7MTMSEGl3-101" value="metadata._contentType" style="text;strokeColor=none;fillColor=none;spacingLeft=4;spacingRight=4;overflow=hidden;rotatable=0;points=[[0,0.5],[1,0.5]];portConstraint=eastwest;fontSize=12;whiteSpace=wrap;html=1;" parent="luPg7t2bCNn7MTMSEGl3-74" vertex="1">
          <mxGeometry y="172" width="160" height="30" as="geometry" />
        </mxCell>
        <mxCell id="luPg7t2bCNn7MTMSEGl3-79" value="fs.chunks" style="swimlane;fontStyle=0;childLayout=stackLayout;horizontal=1;startSize=26;horizontalStack=0;resizeParent=1;resizeParentMax=0;resizeLast=0;collapsible=1;marginBottom=0;align=center;fontSize=14;fillColor=#f8cecc;strokeColor=#b85450;" parent="1" vertex="1">
          <mxGeometry x="430" y="830" width="160" height="146" as="geometry" />
        </mxCell>
        <mxCell id="luPg7t2bCNn7MTMSEGl3-80" value="_id" style="text;strokeColor=none;fillColor=none;spacingLeft=4;spacingRight=4;overflow=hidden;rotatable=0;points=[[0,0.5],[1,0.5]];portConstraint=eastwest;fontSize=12;whiteSpace=wrap;html=1;" parent="luPg7t2bCNn7MTMSEGl3-79" vertex="1">
          <mxGeometry y="26" width="160" height="30" as="geometry" />
        </mxCell>
        <mxCell id="luPg7t2bCNn7MTMSEGl3-81" value="data" style="text;strokeColor=none;fillColor=none;spacingLeft=4;spacingRight=4;overflow=hidden;rotatable=0;points=[[0,0.5],[1,0.5]];portConstraint=eastwest;fontSize=12;whiteSpace=wrap;html=1;" parent="luPg7t2bCNn7MTMSEGl3-79" vertex="1">
          <mxGeometry y="56" width="160" height="30" as="geometry" />
        </mxCell>
        <mxCell id="luPg7t2bCNn7MTMSEGl3-82" value="file_id" style="text;strokeColor=none;fillColor=none;spacingLeft=4;spacingRight=4;overflow=hidden;rotatable=0;points=[[0,0.5],[1,0.5]];portConstraint=eastwest;fontSize=12;whiteSpace=wrap;html=1;" parent="luPg7t2bCNn7MTMSEGl3-79" vertex="1">
          <mxGeometry y="86" width="160" height="30" as="geometry" />
        </mxCell>
        <mxCell id="luPg7t2bCNn7MTMSEGl3-83" value="n" style="text;strokeColor=none;fillColor=none;spacingLeft=4;spacingRight=4;overflow=hidden;rotatable=0;points=[[0,0.5],[1,0.5]];portConstraint=eastwest;fontSize=12;whiteSpace=wrap;html=1;" parent="luPg7t2bCNn7MTMSEGl3-79" vertex="1">
          <mxGeometry y="116" width="160" height="30" as="geometry" />
        </mxCell>
        <mxCell id="luPg7t2bCNn7MTMSEGl3-102" value="" style="edgeStyle=entityRelationEdgeStyle;fontSize=12;html=1;endArrow=ERmandOne;startArrow=ERmandOne;rounded=0;exitX=1;exitY=0.5;exitDx=0;exitDy=0;entryX=0;entryY=0.5;entryDx=0;entryDy=0;" parent="1" source="luPg7t2bCNn7MTMSEGl3-88" target="luPg7t2bCNn7MTMSEGl3-75" edge="1">
          <mxGeometry width="100" height="100" relative="1" as="geometry">
            <mxPoint x="360" y="1191" as="sourcePoint" />
            <mxPoint x="460" y="1091" as="targetPoint" />
          </mxGeometry>
        </mxCell>
        <mxCell id="luPg7t2bCNn7MTMSEGl3-104" value="" style="edgeStyle=entityRelationEdgeStyle;fontSize=12;html=1;endArrow=ERoneToMany;startArrow=ERmandOne;rounded=0;exitX=1;exitY=0.5;exitDx=0;exitDy=0;" parent="1" source="luPg7t2bCNn7MTMSEGl3-75" target="luPg7t2bCNn7MTMSEGl3-82" edge="1">
          <mxGeometry width="100" height="100" relative="1" as="geometry">
            <mxPoint x="670" y="1091" as="sourcePoint" />
            <mxPoint x="780" y="971" as="targetPoint" />
          </mxGeometry>
        </mxCell>
        <mxCell id="MH0iUW0ZGjXXIb8IeGr6-1" value="Вхід до системи" style="swimlane;html=1;childLayout=stackLayout;resizeParent=1;resizeParentMax=0;horizontal=1;startSize=20;horizontalStack=0;whiteSpace=wrap;fillColor=#d5e8d4;strokeColor=#82b366;" parent="1" vertex="1">
          <mxGeometry x="1990" y="130" width="1440" height="550" as="geometry" />
        </mxCell>
        <mxCell id="MH0iUW0ZGjXXIb8IeGr6-24" value="Google auth сервер" style="swimlane;html=1;startSize=20;horizontal=0;" parent="MH0iUW0ZGjXXIb8IeGr6-1" vertex="1">
          <mxGeometry y="20" width="1440" height="160" as="geometry" />
        </mxCell>
        <mxCell id="MH0iUW0ZGjXXIb8IeGr6-30" value="Введення логіну та паролю та/або вибір активного аккаунта" style="points=[[0.25,0,0],[0.5,0,0],[0.75,0,0],[1,0.25,0],[1,0.5,0],[1,0.75,0],[0.75,1,0],[0.5,1,0],[0.25,1,0],[0,0.75,0],[0,0.5,0],[0,0.25,0]];shape=mxgraph.bpmn.task;whiteSpace=wrap;rectStyle=rounded;size=10;html=1;container=1;expand=0;collapsible=0;taskMarker=abstract;" parent="MH0iUW0ZGjXXIb8IeGr6-24" vertex="1">
          <mxGeometry x="570" y="45" width="120" height="80" as="geometry" />
        </mxCell>
        <mxCell id="MH0iUW0ZGjXXIb8IeGr6-18" value="" style="points=[[0.145,0.145,0],[0.5,0,0],[0.855,0.145,0],[1,0.5,0],[0.855,0.855,0],[0.5,1,0],[0.145,0.855,0],[0,0.5,0]];shape=mxgraph.bpmn.event;html=1;verticalLabelPosition=bottom;labelBackgroundColor=#ffffff;verticalAlign=top;align=center;perimeter=ellipsePerimeter;outlineConnect=0;aspect=fixed;outline=standard;symbol=message;" parent="MH0iUW0ZGjXXIb8IeGr6-24" vertex="1">
          <mxGeometry x="460" y="60" width="50" height="50" as="geometry" />
        </mxCell>
        <mxCell id="MH0iUW0ZGjXXIb8IeGr6-33" style="edgeStyle=orthogonalEdgeStyle;rounded=0;orthogonalLoop=1;jettySize=auto;html=1;entryX=0;entryY=0.5;entryDx=0;entryDy=0;entryPerimeter=0;" parent="MH0iUW0ZGjXXIb8IeGr6-24" source="MH0iUW0ZGjXXIb8IeGr6-18" target="MH0iUW0ZGjXXIb8IeGr6-30" edge="1">
          <mxGeometry relative="1" as="geometry" />
        </mxCell>
        <mxCell id="MH0iUW0ZGjXXIb8IeGr6-53" style="edgeStyle=orthogonalEdgeStyle;rounded=0;orthogonalLoop=1;jettySize=auto;html=1;entryX=0;entryY=0.5;entryDx=0;entryDy=0;entryPerimeter=0;" parent="MH0iUW0ZGjXXIb8IeGr6-24" source="MH0iUW0ZGjXXIb8IeGr6-30" target="MH0iUW0ZGjXXIb8IeGr6-56" edge="1">
          <mxGeometry relative="1" as="geometry">
            <mxPoint x="730" y="85" as="targetPoint" />
          </mxGeometry>
        </mxCell>
        <mxCell id="MH0iUW0ZGjXXIb8IeGr6-56" value="" style="points=[[0.25,0.25,0],[0.5,0,0],[0.75,0.25,0],[1,0.5,0],[0.75,0.75,0],[0.5,1,0],[0.25,0.75,0],[0,0.5,0]];shape=mxgraph.bpmn.gateway2;html=1;verticalLabelPosition=bottom;labelBackgroundColor=#ffffff;verticalAlign=top;align=center;perimeter=rhombusPerimeter;outlineConnect=0;outline=none;symbol=none;" parent="MH0iUW0ZGjXXIb8IeGr6-24" vertex="1">
          <mxGeometry x="738" y="60" width="50" height="50" as="geometry" />
        </mxCell>
        <mxCell id="MH0iUW0ZGjXXIb8IeGr6-57" value="Аутентифікація успішна" style="text;html=1;strokeColor=none;fillColor=none;align=center;verticalAlign=middle;whiteSpace=wrap;rounded=0;" parent="MH0iUW0ZGjXXIb8IeGr6-24" vertex="1">
          <mxGeometry x="720" y="20" width="80" height="30" as="geometry" />
        </mxCell>
        <mxCell id="MH0iUW0ZGjXXIb8IeGr6-58" value="Підтвердження надання прав на використання особистих даних та доступ до Google Drvie" style="points=[[0.25,0,0],[0.5,0,0],[0.75,0,0],[1,0.25,0],[1,0.5,0],[1,0.75,0],[0.75,1,0],[0.5,1,0],[0.25,1,0],[0,0.75,0],[0,0.5,0],[0,0.25,0]];shape=mxgraph.bpmn.task;whiteSpace=wrap;rectStyle=rounded;size=10;html=1;container=1;expand=0;collapsible=0;taskMarker=abstract;" parent="MH0iUW0ZGjXXIb8IeGr6-24" vertex="1">
          <mxGeometry x="870" y="45" width="140" height="80" as="geometry" />
        </mxCell>
        <mxCell id="MH0iUW0ZGjXXIb8IeGr6-59" style="edgeStyle=orthogonalEdgeStyle;rounded=0;orthogonalLoop=1;jettySize=auto;html=1;entryX=0;entryY=0.5;entryDx=0;entryDy=0;entryPerimeter=0;" parent="MH0iUW0ZGjXXIb8IeGr6-24" source="MH0iUW0ZGjXXIb8IeGr6-56" target="MH0iUW0ZGjXXIb8IeGr6-58" edge="1">
          <mxGeometry relative="1" as="geometry" />
        </mxCell>
        <mxCell id="MH0iUW0ZGjXXIb8IeGr6-60" value="так" style="text;html=1;strokeColor=none;fillColor=none;align=center;verticalAlign=middle;whiteSpace=wrap;rounded=0;" parent="MH0iUW0ZGjXXIb8IeGr6-24" vertex="1">
          <mxGeometry x="810" y="60" width="30" height="20" as="geometry" />
        </mxCell>
        <mxCell id="MH0iUW0ZGjXXIb8IeGr6-75" value="ні" style="text;html=1;strokeColor=none;fillColor=none;align=center;verticalAlign=middle;whiteSpace=wrap;rounded=0;" parent="MH0iUW0ZGjXXIb8IeGr6-24" vertex="1">
          <mxGeometry x="730" y="170" width="30" height="20" as="geometry" />
        </mxCell>
        <mxCell id="MH0iUW0ZGjXXIb8IeGr6-82" value="" style="points=[[0.25,0.25,0],[0.5,0,0],[0.75,0.25,0],[1,0.5,0],[0.75,0.75,0],[0.5,1,0],[0.25,0.75,0],[0,0.5,0]];shape=mxgraph.bpmn.gateway2;html=1;verticalLabelPosition=bottom;labelBackgroundColor=#ffffff;verticalAlign=top;align=center;perimeter=rhombusPerimeter;outlineConnect=0;outline=none;symbol=none;" parent="MH0iUW0ZGjXXIb8IeGr6-24" vertex="1">
          <mxGeometry x="1050" y="60" width="50" height="50" as="geometry" />
        </mxCell>
        <mxCell id="MH0iUW0ZGjXXIb8IeGr6-83" style="edgeStyle=orthogonalEdgeStyle;rounded=0;orthogonalLoop=1;jettySize=auto;html=1;entryX=0;entryY=0.5;entryDx=0;entryDy=0;entryPerimeter=0;" parent="MH0iUW0ZGjXXIb8IeGr6-24" source="MH0iUW0ZGjXXIb8IeGr6-58" target="MH0iUW0ZGjXXIb8IeGr6-82" edge="1">
          <mxGeometry relative="1" as="geometry" />
        </mxCell>
        <mxCell id="MH0iUW0ZGjXXIb8IeGr6-85" value="так" style="text;html=1;strokeColor=none;fillColor=none;align=center;verticalAlign=middle;whiteSpace=wrap;rounded=0;" parent="MH0iUW0ZGjXXIb8IeGr6-24" vertex="1">
          <mxGeometry x="1130" y="50" width="30" height="20" as="geometry" />
        </mxCell>
        <mxCell id="MH0iUW0ZGjXXIb8IeGr6-88" value="Перенаправлення на головну сторінку" style="points=[[0.25,0,0],[0.5,0,0],[0.75,0,0],[1,0.25,0],[1,0.5,0],[1,0.75,0],[0.75,1,0],[0.5,1,0],[0.25,1,0],[0,0.75,0],[0,0.5,0],[0,0.25,0]];shape=mxgraph.bpmn.task;whiteSpace=wrap;rectStyle=rounded;size=10;html=1;container=1;expand=0;collapsible=0;taskMarker=abstract;" parent="MH0iUW0ZGjXXIb8IeGr6-24" vertex="1">
          <mxGeometry x="1170" y="45" width="140" height="80" as="geometry" />
        </mxCell>
        <mxCell id="MH0iUW0ZGjXXIb8IeGr6-92" style="edgeStyle=orthogonalEdgeStyle;rounded=0;orthogonalLoop=1;jettySize=auto;html=1;entryX=0;entryY=0.5;entryDx=0;entryDy=0;entryPerimeter=0;" parent="MH0iUW0ZGjXXIb8IeGr6-24" source="MH0iUW0ZGjXXIb8IeGr6-82" target="MH0iUW0ZGjXXIb8IeGr6-88" edge="1">
          <mxGeometry relative="1" as="geometry" />
        </mxCell>
        <mxCell id="MH0iUW0ZGjXXIb8IeGr6-97" value="Авторизація успішна" style="text;html=1;strokeColor=none;fillColor=none;align=center;verticalAlign=middle;whiteSpace=wrap;rounded=0;" parent="MH0iUW0ZGjXXIb8IeGr6-24" vertex="1">
          <mxGeometry x="1040" y="15" width="80" height="30" as="geometry" />
        </mxCell>
        <mxCell id="MH0iUW0ZGjXXIb8IeGr6-2" value="Клієнтська частина" style="swimlane;html=1;startSize=20;horizontal=0;" parent="MH0iUW0ZGjXXIb8IeGr6-1" vertex="1">
          <mxGeometry y="180" width="1440" height="170" as="geometry" />
        </mxCell>
        <mxCell id="MH0iUW0ZGjXXIb8IeGr6-5" value="" style="points=[[0.145,0.145,0],[0.5,0,0],[0.855,0.145,0],[1,0.5,0],[0.855,0.855,0],[0.5,1,0],[0.145,0.855,0],[0,0.5,0]];shape=mxgraph.bpmn.event;html=1;verticalLabelPosition=bottom;labelBackgroundColor=#ffffff;verticalAlign=top;align=center;perimeter=ellipsePerimeter;outlineConnect=0;aspect=fixed;outline=standard;symbol=general;" parent="MH0iUW0ZGjXXIb8IeGr6-2" vertex="1">
          <mxGeometry x="61.5" y="60" width="50" height="50" as="geometry" />
        </mxCell>
        <mxCell id="MH0iUW0ZGjXXIb8IeGr6-6" value="Користувач хоче ввійти до системи" style="text;html=1;strokeColor=none;fillColor=none;align=center;verticalAlign=middle;whiteSpace=wrap;rounded=0;" parent="MH0iUW0ZGjXXIb8IeGr6-2" vertex="1">
          <mxGeometry x="40" y="120" width="93" height="40" as="geometry" />
        </mxCell>
        <mxCell id="MH0iUW0ZGjXXIb8IeGr6-7" value="Рендеринг сторінки входу" style="points=[[0.25,0,0],[0.5,0,0],[0.75,0,0],[1,0.25,0],[1,0.5,0],[1,0.75,0],[0.75,1,0],[0.5,1,0],[0.25,1,0],[0,0.75,0],[0,0.5,0],[0,0.25,0]];shape=mxgraph.bpmn.task;whiteSpace=wrap;rectStyle=rounded;size=10;html=1;container=1;expand=0;collapsible=0;taskMarker=abstract;" parent="MH0iUW0ZGjXXIb8IeGr6-2" vertex="1">
          <mxGeometry x="170" y="45" width="120" height="80" as="geometry" />
        </mxCell>
        <mxCell id="MH0iUW0ZGjXXIb8IeGr6-8" style="edgeStyle=orthogonalEdgeStyle;rounded=0;orthogonalLoop=1;jettySize=auto;html=1;entryX=0;entryY=0.5;entryDx=0;entryDy=0;entryPerimeter=0;" parent="MH0iUW0ZGjXXIb8IeGr6-2" source="MH0iUW0ZGjXXIb8IeGr6-5" target="MH0iUW0ZGjXXIb8IeGr6-7" edge="1">
          <mxGeometry relative="1" as="geometry" />
        </mxCell>
        <mxCell id="MH0iUW0ZGjXXIb8IeGr6-19" value="Перенаправлення на сторінкуавторизації Google" style="text;html=1;strokeColor=none;fillColor=none;align=center;verticalAlign=middle;whiteSpace=wrap;rounded=0;" parent="MH0iUW0ZGjXXIb8IeGr6-2" vertex="1">
          <mxGeometry x="480" y="65" width="120" height="40" as="geometry" />
        </mxCell>
        <mxCell id="MH0iUW0ZGjXXIb8IeGr6-87" value="ні" style="text;html=1;strokeColor=none;fillColor=none;align=center;verticalAlign=middle;whiteSpace=wrap;rounded=0;" parent="MH0iUW0ZGjXXIb8IeGr6-2" vertex="1">
          <mxGeometry x="1040" y="10" width="30" height="20" as="geometry" />
        </mxCell>
        <mxCell id="MH0iUW0ZGjXXIb8IeGr6-90" value="Повідомлення про помилку" style="points=[[0.25,0,0],[0.5,0,0],[0.75,0,0],[1,0.25,0],[1,0.5,0],[1,0.75,0],[0.75,1,0],[0.5,1,0],[0.25,1,0],[0,0.75,0],[0,0.5,0],[0,0.25,0]];shape=mxgraph.bpmn.task;whiteSpace=wrap;rectStyle=rounded;size=10;html=1;container=1;expand=0;collapsible=0;taskMarker=abstract;" parent="MH0iUW0ZGjXXIb8IeGr6-2" vertex="1">
          <mxGeometry x="1160" y="50" width="140" height="80" as="geometry" />
        </mxCell>
        <mxCell id="MH0iUW0ZGjXXIb8IeGr6-89" value="" style="points=[[0.145,0.145,0],[0.5,0,0],[0.855,0.145,0],[1,0.5,0],[0.855,0.855,0],[0.5,1,0],[0.145,0.855,0],[0,0.5,0]];shape=mxgraph.bpmn.event;html=1;verticalLabelPosition=bottom;labelBackgroundColor=#ffffff;verticalAlign=top;align=center;perimeter=ellipsePerimeter;outlineConnect=0;aspect=fixed;outline=end;symbol=terminate;" parent="MH0iUW0ZGjXXIb8IeGr6-2" vertex="1">
          <mxGeometry x="1370" y="65" width="50" height="50" as="geometry" />
        </mxCell>
        <mxCell id="MH0iUW0ZGjXXIb8IeGr6-93" style="edgeStyle=orthogonalEdgeStyle;rounded=0;orthogonalLoop=1;jettySize=auto;html=1;entryX=0;entryY=0.5;entryDx=0;entryDy=0;entryPerimeter=0;" parent="MH0iUW0ZGjXXIb8IeGr6-2" source="MH0iUW0ZGjXXIb8IeGr6-90" target="MH0iUW0ZGjXXIb8IeGr6-89" edge="1">
          <mxGeometry relative="1" as="geometry" />
        </mxCell>
        <mxCell id="MH0iUW0ZGjXXIb8IeGr6-3" value="Серверна частина" style="swimlane;html=1;startSize=20;horizontal=0;" parent="MH0iUW0ZGjXXIb8IeGr6-1" vertex="1">
          <mxGeometry y="350" width="1440" height="200" as="geometry" />
        </mxCell>
        <mxCell id="MH0iUW0ZGjXXIb8IeGr6-9" value="" style="points=[[0.145,0.145,0],[0.5,0,0],[0.855,0.145,0],[1,0.5,0],[0.855,0.855,0],[0.5,1,0],[0.145,0.855,0],[0,0.5,0]];shape=mxgraph.bpmn.event;html=1;verticalLabelPosition=bottom;labelBackgroundColor=#ffffff;verticalAlign=top;align=center;perimeter=ellipsePerimeter;outlineConnect=0;aspect=fixed;outline=standard;symbol=message;" parent="MH0iUW0ZGjXXIb8IeGr6-3" vertex="1">
          <mxGeometry x="205" y="66" width="50" height="50" as="geometry" />
        </mxCell>
        <mxCell id="MH0iUW0ZGjXXIb8IeGr6-13" value="Запит на /login" style="text;html=1;strokeColor=none;fillColor=none;align=center;verticalAlign=middle;whiteSpace=wrap;rounded=0;" parent="MH0iUW0ZGjXXIb8IeGr6-3" vertex="1">
          <mxGeometry x="160" y="10" width="80" height="30" as="geometry" />
        </mxCell>
        <mxCell id="MH0iUW0ZGjXXIb8IeGr6-14" value="Ініціалізація процесу входу" style="points=[[0.25,0,0],[0.5,0,0],[0.75,0,0],[1,0.25,0],[1,0.5,0],[1,0.75,0],[0.75,1,0],[0.5,1,0],[0.25,1,0],[0,0.75,0],[0,0.5,0],[0,0.25,0]];shape=mxgraph.bpmn.task;whiteSpace=wrap;rectStyle=rounded;size=10;html=1;container=1;expand=0;collapsible=0;taskMarker=abstract;" parent="MH0iUW0ZGjXXIb8IeGr6-3" vertex="1">
          <mxGeometry x="328" y="51" width="120" height="80" as="geometry" />
        </mxCell>
        <mxCell id="MH0iUW0ZGjXXIb8IeGr6-15" style="edgeStyle=orthogonalEdgeStyle;rounded=0;orthogonalLoop=1;jettySize=auto;html=1;entryX=0;entryY=0.5;entryDx=0;entryDy=0;entryPerimeter=0;" parent="MH0iUW0ZGjXXIb8IeGr6-3" source="MH0iUW0ZGjXXIb8IeGr6-9" target="MH0iUW0ZGjXXIb8IeGr6-14" edge="1">
          <mxGeometry relative="1" as="geometry" />
        </mxCell>
        <mxCell id="MH0iUW0ZGjXXIb8IeGr6-22" value="" style="dashed=1;dashPattern=8 4;endArrow=blockThin;endFill=1;startArrow=oval;startFill=0;endSize=6;startSize=4;html=1;rounded=0;exitX=0.5;exitY=1;exitDx=0;exitDy=0;exitPerimeter=0;entryX=0.5;entryY=0;entryDx=0;entryDy=0;entryPerimeter=0;" parent="MH0iUW0ZGjXXIb8IeGr6-1" source="MH0iUW0ZGjXXIb8IeGr6-7" target="MH0iUW0ZGjXXIb8IeGr6-9" edge="1">
          <mxGeometry width="160" relative="1" as="geometry">
            <mxPoint x="230" y="370" as="sourcePoint" />
            <mxPoint x="390" y="370" as="targetPoint" />
          </mxGeometry>
        </mxCell>
        <mxCell id="MH0iUW0ZGjXXIb8IeGr6-32" value="" style="dashed=1;dashPattern=8 4;endArrow=blockThin;endFill=1;startArrow=oval;startFill=0;endSize=6;startSize=4;html=1;rounded=0;exitX=1;exitY=0.5;exitDx=0;exitDy=0;exitPerimeter=0;entryX=0.5;entryY=1;entryDx=0;entryDy=0;entryPerimeter=0;" parent="MH0iUW0ZGjXXIb8IeGr6-1" source="MH0iUW0ZGjXXIb8IeGr6-14" target="MH0iUW0ZGjXXIb8IeGr6-18" edge="1">
          <mxGeometry width="160" relative="1" as="geometry">
            <mxPoint x="470" y="330" as="sourcePoint" />
            <mxPoint x="630" y="330" as="targetPoint" />
          </mxGeometry>
        </mxCell>
        <mxCell id="MH0iUW0ZGjXXIb8IeGr6-64" value="" style="dashed=1;dashPattern=8 4;endArrow=blockThin;endFill=1;startArrow=oval;startFill=0;endSize=6;startSize=4;html=1;rounded=0;exitX=0.5;exitY=1;exitDx=0;exitDy=0;exitPerimeter=0;entryX=0;entryY=0.5;entryDx=0;entryDy=0;entryPerimeter=0;" parent="MH0iUW0ZGjXXIb8IeGr6-1" source="MH0iUW0ZGjXXIb8IeGr6-56" target="MH0iUW0ZGjXXIb8IeGr6-90" edge="1">
          <mxGeometry width="160" relative="1" as="geometry">
            <mxPoint x="458" y="541" as="sourcePoint" />
            <mxPoint x="1380" y="275" as="targetPoint" />
            <Array as="points">
              <mxPoint x="763" y="270" />
            </Array>
          </mxGeometry>
        </mxCell>
        <mxCell id="MH0iUW0ZGjXXIb8IeGr6-86" value="" style="dashed=1;dashPattern=8 4;endArrow=blockThin;endFill=1;startArrow=oval;startFill=0;endSize=6;startSize=4;html=1;rounded=0;exitX=0.5;exitY=1;exitDx=0;exitDy=0;exitPerimeter=0;entryX=0;entryY=0.5;entryDx=0;entryDy=0;entryPerimeter=0;" parent="MH0iUW0ZGjXXIb8IeGr6-1" source="MH0iUW0ZGjXXIb8IeGr6-82" target="MH0iUW0ZGjXXIb8IeGr6-90" edge="1">
          <mxGeometry width="160" relative="1" as="geometry">
            <mxPoint x="773" y="140" as="sourcePoint" />
            <mxPoint x="1380" y="275" as="targetPoint" />
            <Array as="points">
              <mxPoint x="1075" y="270" />
            </Array>
          </mxGeometry>
        </mxCell>
        <mxCell id="MH0iUW0ZGjXXIb8IeGr6-95" value="" style="dashed=1;dashPattern=8 4;endArrow=blockThin;endFill=1;startArrow=oval;startFill=0;endSize=6;startSize=4;html=1;rounded=0;exitX=1;exitY=0.5;exitDx=0;exitDy=0;exitPerimeter=0;entryX=0.5;entryY=0;entryDx=0;entryDy=0;entryPerimeter=0;" parent="MH0iUW0ZGjXXIb8IeGr6-1" source="MH0iUW0ZGjXXIb8IeGr6-88" target="MH0iUW0ZGjXXIb8IeGr6-89" edge="1">
          <mxGeometry width="160" relative="1" as="geometry">
            <mxPoint x="1085" y="140" as="sourcePoint" />
            <mxPoint x="1350" y="290" as="targetPoint" />
            <Array as="points">
              <mxPoint x="1395" y="105" />
            </Array>
          </mxGeometry>
        </mxCell>
        <mxCell id="MH0iUW0ZGjXXIb8IeGr6-98" value="Імпорт файлів з Google Drive" style="swimlane;html=1;childLayout=stackLayout;resizeParent=1;resizeParentMax=0;horizontal=1;startSize=20;horizontalStack=0;whiteSpace=wrap;fillColor=#d5e8d4;strokeColor=#82b366;" parent="1" vertex="1">
          <mxGeometry x="2000" y="730" width="1430" height="470" as="geometry" />
        </mxCell>
        <mxCell id="MH0iUW0ZGjXXIb8IeGr6-99" value="Google Drive" style="swimlane;html=1;startSize=20;horizontal=0;" parent="MH0iUW0ZGjXXIb8IeGr6-98" vertex="1">
          <mxGeometry y="20" width="1430" height="161" as="geometry" />
        </mxCell>
        <mxCell id="MH0iUW0ZGjXXIb8IeGr6-151" value="" style="points=[[0.145,0.145,0],[0.5,0,0],[0.855,0.145,0],[1,0.5,0],[0.855,0.855,0],[0.5,1,0],[0.145,0.855,0],[0,0.5,0]];shape=mxgraph.bpmn.event;html=1;verticalLabelPosition=bottom;labelBackgroundColor=#ffffff;verticalAlign=top;align=center;perimeter=ellipsePerimeter;outlineConnect=0;aspect=fixed;outline=standard;symbol=message;" parent="MH0iUW0ZGjXXIb8IeGr6-99" vertex="1">
          <mxGeometry x="400" y="44" width="50" height="50" as="geometry" />
        </mxCell>
        <mxCell id="MH0iUW0ZGjXXIb8IeGr6-153" value="Запит на відкриття списку фалів на Google Drive" style="text;html=1;strokeColor=none;fillColor=none;align=center;verticalAlign=middle;whiteSpace=wrap;rounded=0;" parent="MH0iUW0ZGjXXIb8IeGr6-99" vertex="1">
          <mxGeometry x="300" y="109" width="110" height="41" as="geometry" />
        </mxCell>
        <mxCell id="MH0iUW0ZGjXXIb8IeGr6-154" value="Вибір потрібних файлів" style="points=[[0.25,0,0],[0.5,0,0],[0.75,0,0],[1,0.25,0],[1,0.5,0],[1,0.75,0],[0.75,1,0],[0.5,1,0],[0.25,1,0],[0,0.75,0],[0,0.5,0],[0,0.25,0]];shape=mxgraph.bpmn.task;whiteSpace=wrap;rectStyle=rounded;size=10;html=1;container=1;expand=0;collapsible=0;taskMarker=abstract;" parent="MH0iUW0ZGjXXIb8IeGr6-99" vertex="1">
          <mxGeometry x="490" y="29" width="120" height="80" as="geometry" />
        </mxCell>
        <mxCell id="MH0iUW0ZGjXXIb8IeGr6-155" style="edgeStyle=orthogonalEdgeStyle;rounded=0;orthogonalLoop=1;jettySize=auto;html=1;exitX=1;exitY=0.5;exitDx=0;exitDy=0;exitPerimeter=0;entryX=0;entryY=0.5;entryDx=0;entryDy=0;entryPerimeter=0;" parent="MH0iUW0ZGjXXIb8IeGr6-99" source="MH0iUW0ZGjXXIb8IeGr6-151" target="MH0iUW0ZGjXXIb8IeGr6-154" edge="1">
          <mxGeometry relative="1" as="geometry" />
        </mxCell>
        <mxCell id="MH0iUW0ZGjXXIb8IeGr6-156" value="Натискання кнопки Select" style="points=[[0.25,0,0],[0.5,0,0],[0.75,0,0],[1,0.25,0],[1,0.5,0],[1,0.75,0],[0.75,1,0],[0.5,1,0],[0.25,1,0],[0,0.75,0],[0,0.5,0],[0,0.25,0]];shape=mxgraph.bpmn.task;whiteSpace=wrap;rectStyle=rounded;size=10;html=1;container=1;expand=0;collapsible=0;taskMarker=abstract;" parent="MH0iUW0ZGjXXIb8IeGr6-99" vertex="1">
          <mxGeometry x="640" y="29" width="120" height="80" as="geometry" />
        </mxCell>
        <mxCell id="MH0iUW0ZGjXXIb8IeGr6-157" style="edgeStyle=orthogonalEdgeStyle;rounded=0;orthogonalLoop=1;jettySize=auto;html=1;entryX=0;entryY=0.5;entryDx=0;entryDy=0;entryPerimeter=0;" parent="MH0iUW0ZGjXXIb8IeGr6-99" source="MH0iUW0ZGjXXIb8IeGr6-154" target="MH0iUW0ZGjXXIb8IeGr6-156" edge="1">
          <mxGeometry relative="1" as="geometry" />
        </mxCell>
        <mxCell id="MH0iUW0ZGjXXIb8IeGr6-116" value="Клієнтська частина" style="swimlane;html=1;startSize=20;horizontal=0;" parent="MH0iUW0ZGjXXIb8IeGr6-98" vertex="1">
          <mxGeometry y="181" width="1430" height="170" as="geometry" />
        </mxCell>
        <mxCell id="MH0iUW0ZGjXXIb8IeGr6-117" value="" style="points=[[0.145,0.145,0],[0.5,0,0],[0.855,0.145,0],[1,0.5,0],[0.855,0.855,0],[0.5,1,0],[0.145,0.855,0],[0,0.5,0]];shape=mxgraph.bpmn.event;html=1;verticalLabelPosition=bottom;labelBackgroundColor=#ffffff;verticalAlign=top;align=center;perimeter=ellipsePerimeter;outlineConnect=0;aspect=fixed;outline=standard;symbol=general;" parent="MH0iUW0ZGjXXIb8IeGr6-116" vertex="1">
          <mxGeometry x="61.5" y="60" width="50" height="50" as="geometry" />
        </mxCell>
        <mxCell id="MH0iUW0ZGjXXIb8IeGr6-118" value="Користувач хоче імпортувати певні файли з Google Drive" style="text;html=1;strokeColor=none;fillColor=none;align=center;verticalAlign=middle;whiteSpace=wrap;rounded=0;" parent="MH0iUW0ZGjXXIb8IeGr6-116" vertex="1">
          <mxGeometry x="30" y="110" width="130" height="50" as="geometry" />
        </mxCell>
        <mxCell id="MH0iUW0ZGjXXIb8IeGr6-119" value="Рендеринг сторінки поточної директорії" style="points=[[0.25,0,0],[0.5,0,0],[0.75,0,0],[1,0.25,0],[1,0.5,0],[1,0.75,0],[0.75,1,0],[0.5,1,0],[0.25,1,0],[0,0.75,0],[0,0.5,0],[0,0.25,0]];shape=mxgraph.bpmn.task;whiteSpace=wrap;rectStyle=rounded;size=10;html=1;container=1;expand=0;collapsible=0;taskMarker=abstract;" parent="MH0iUW0ZGjXXIb8IeGr6-116" vertex="1">
          <mxGeometry x="150" y="45" width="120" height="80" as="geometry" />
        </mxCell>
        <mxCell id="MH0iUW0ZGjXXIb8IeGr6-120" style="edgeStyle=orthogonalEdgeStyle;rounded=0;orthogonalLoop=1;jettySize=auto;html=1;entryX=0;entryY=0.5;entryDx=0;entryDy=0;entryPerimeter=0;" parent="MH0iUW0ZGjXXIb8IeGr6-116" source="MH0iUW0ZGjXXIb8IeGr6-117" target="MH0iUW0ZGjXXIb8IeGr6-119" edge="1">
          <mxGeometry relative="1" as="geometry" />
        </mxCell>
        <mxCell id="MH0iUW0ZGjXXIb8IeGr6-147" value="Натискання на кнопку Import From Goole Drive" style="points=[[0.25,0,0],[0.5,0,0],[0.75,0,0],[1,0.25,0],[1,0.5,0],[1,0.75,0],[0.75,1,0],[0.5,1,0],[0.25,1,0],[0,0.75,0],[0,0.5,0],[0,0.25,0]];shape=mxgraph.bpmn.task;whiteSpace=wrap;rectStyle=rounded;size=10;html=1;container=1;expand=0;collapsible=0;taskMarker=abstract;" parent="MH0iUW0ZGjXXIb8IeGr6-116" vertex="1">
          <mxGeometry x="290" y="45" width="120" height="80" as="geometry" />
        </mxCell>
        <mxCell id="MH0iUW0ZGjXXIb8IeGr6-148" style="edgeStyle=orthogonalEdgeStyle;rounded=0;orthogonalLoop=1;jettySize=auto;html=1;entryX=0;entryY=0.5;entryDx=0;entryDy=0;entryPerimeter=0;" parent="MH0iUW0ZGjXXIb8IeGr6-116" source="MH0iUW0ZGjXXIb8IeGr6-119" target="MH0iUW0ZGjXXIb8IeGr6-147" edge="1">
          <mxGeometry relative="1" as="geometry" />
        </mxCell>
        <mxCell id="MH0iUW0ZGjXXIb8IeGr6-158" value="" style="points=[[0.145,0.145,0],[0.5,0,0],[0.855,0.145,0],[1,0.5,0],[0.855,0.855,0],[0.5,1,0],[0.145,0.855,0],[0,0.5,0]];shape=mxgraph.bpmn.event;html=1;verticalLabelPosition=bottom;labelBackgroundColor=#ffffff;verticalAlign=top;align=center;perimeter=ellipsePerimeter;outlineConnect=0;aspect=fixed;outline=standard;symbol=message;" parent="MH0iUW0ZGjXXIb8IeGr6-116" vertex="1">
          <mxGeometry x="790" y="60" width="50" height="50" as="geometry" />
        </mxCell>
        <mxCell id="MH0iUW0ZGjXXIb8IeGr6-160" value="Запит до сервера на імпорт файлів" style="points=[[0.25,0,0],[0.5,0,0],[0.75,0,0],[1,0.25,0],[1,0.5,0],[1,0.75,0],[0.75,1,0],[0.5,1,0],[0.25,1,0],[0,0.75,0],[0,0.5,0],[0,0.25,0]];shape=mxgraph.bpmn.task;whiteSpace=wrap;rectStyle=rounded;size=10;html=1;container=1;expand=0;collapsible=0;taskMarker=abstract;" parent="MH0iUW0ZGjXXIb8IeGr6-116" vertex="1">
          <mxGeometry x="880" y="45" width="120" height="80" as="geometry" />
        </mxCell>
        <mxCell id="MH0iUW0ZGjXXIb8IeGr6-162" style="edgeStyle=orthogonalEdgeStyle;rounded=0;orthogonalLoop=1;jettySize=auto;html=1;entryX=0;entryY=0.5;entryDx=0;entryDy=0;entryPerimeter=0;" parent="MH0iUW0ZGjXXIb8IeGr6-116" source="MH0iUW0ZGjXXIb8IeGr6-158" target="MH0iUW0ZGjXXIb8IeGr6-160" edge="1">
          <mxGeometry relative="1" as="geometry" />
        </mxCell>
        <mxCell id="MH0iUW0ZGjXXIb8IeGr6-200" value="Імпортовані файли з&#39;явились у поточній директорії" style="points=[[0.25,0,0],[0.5,0,0],[0.75,0,0],[1,0.25,0],[1,0.5,0],[1,0.75,0],[0.75,1,0],[0.5,1,0],[0.25,1,0],[0,0.75,0],[0,0.5,0],[0,0.25,0]];shape=mxgraph.bpmn.task;whiteSpace=wrap;rectStyle=rounded;size=10;html=1;container=1;expand=0;collapsible=0;taskMarker=abstract;" parent="MH0iUW0ZGjXXIb8IeGr6-116" vertex="1">
          <mxGeometry x="1220" y="45" width="120" height="80" as="geometry" />
        </mxCell>
        <mxCell id="MH0iUW0ZGjXXIb8IeGr6-201" value="" style="points=[[0.145,0.145,0],[0.5,0,0],[0.855,0.145,0],[1,0.5,0],[0.855,0.855,0],[0.5,1,0],[0.145,0.855,0],[0,0.5,0]];shape=mxgraph.bpmn.event;html=1;verticalLabelPosition=bottom;labelBackgroundColor=#ffffff;verticalAlign=top;align=center;perimeter=ellipsePerimeter;outlineConnect=0;aspect=fixed;outline=end;symbol=message;" parent="MH0iUW0ZGjXXIb8IeGr6-116" vertex="1">
          <mxGeometry x="1360" y="60" width="50" height="50" as="geometry" />
        </mxCell>
        <mxCell id="MH0iUW0ZGjXXIb8IeGr6-203" style="edgeStyle=orthogonalEdgeStyle;rounded=0;orthogonalLoop=1;jettySize=auto;html=1;entryX=0;entryY=0.5;entryDx=0;entryDy=0;entryPerimeter=0;" parent="MH0iUW0ZGjXXIb8IeGr6-116" source="MH0iUW0ZGjXXIb8IeGr6-200" target="MH0iUW0ZGjXXIb8IeGr6-201" edge="1">
          <mxGeometry relative="1" as="geometry" />
        </mxCell>
        <mxCell id="MH0iUW0ZGjXXIb8IeGr6-152" value="" style="dashed=1;dashPattern=8 4;endArrow=blockThin;endFill=1;startArrow=oval;startFill=0;endSize=6;startSize=4;html=1;rounded=0;exitX=1;exitY=0.5;exitDx=0;exitDy=0;exitPerimeter=0;entryX=0.5;entryY=1;entryDx=0;entryDy=0;entryPerimeter=0;" parent="MH0iUW0ZGjXXIb8IeGr6-98" source="MH0iUW0ZGjXXIb8IeGr6-147" target="MH0iUW0ZGjXXIb8IeGr6-151" edge="1">
          <mxGeometry width="160" relative="1" as="geometry">
            <mxPoint x="550" y="266" as="sourcePoint" />
            <mxPoint x="890" y="250" as="targetPoint" />
          </mxGeometry>
        </mxCell>
        <mxCell id="MH0iUW0ZGjXXIb8IeGr6-159" value="" style="dashed=1;dashPattern=8 4;endArrow=blockThin;endFill=1;startArrow=oval;startFill=0;endSize=6;startSize=4;html=1;rounded=0;exitX=1;exitY=0.5;exitDx=0;exitDy=0;exitPerimeter=0;entryX=0.5;entryY=0;entryDx=0;entryDy=0;entryPerimeter=0;" parent="MH0iUW0ZGjXXIb8IeGr6-98" source="MH0iUW0ZGjXXIb8IeGr6-156" target="MH0iUW0ZGjXXIb8IeGr6-158" edge="1">
          <mxGeometry width="160" relative="1" as="geometry">
            <mxPoint x="630" y="276" as="sourcePoint" />
            <mxPoint x="695" y="124" as="targetPoint" />
          </mxGeometry>
        </mxCell>
        <mxCell id="MH0iUW0ZGjXXIb8IeGr6-164" value="" style="dashed=1;dashPattern=8 4;endArrow=blockThin;endFill=1;startArrow=oval;startFill=0;endSize=6;startSize=4;html=1;rounded=0;exitX=1;exitY=0.5;exitDx=0;exitDy=0;exitPerimeter=0;entryX=0.5;entryY=0;entryDx=0;entryDy=0;entryPerimeter=0;" parent="MH0iUW0ZGjXXIb8IeGr6-98" source="MH0iUW0ZGjXXIb8IeGr6-160" target="MH0iUW0ZGjXXIb8IeGr6-163" edge="1">
          <mxGeometry width="160" relative="1" as="geometry">
            <mxPoint x="1263" y="244" as="sourcePoint" />
            <mxPoint x="1308" y="396" as="targetPoint" />
          </mxGeometry>
        </mxCell>
        <mxCell id="MH0iUW0ZGjXXIb8IeGr6-171" value="" style="dashed=1;dashPattern=8 4;endArrow=blockThin;endFill=1;startArrow=oval;startFill=0;endSize=6;startSize=4;html=1;rounded=0;exitX=1;exitY=0.5;exitDx=0;exitDy=0;exitPerimeter=0;entryX=0;entryY=0.5;entryDx=0;entryDy=0;entryPerimeter=0;" parent="MH0iUW0ZGjXXIb8IeGr6-98" source="MH0iUW0ZGjXXIb8IeGr6-167" target="MH0iUW0ZGjXXIb8IeGr6-200" edge="1">
          <mxGeometry width="160" relative="1" as="geometry">
            <mxPoint x="1230" y="276" as="sourcePoint" />
            <mxPoint x="1460" y="280" as="targetPoint" />
          </mxGeometry>
        </mxCell>
        <mxCell id="MH0iUW0ZGjXXIb8IeGr6-126" value="Серверна частина" style="swimlane;html=1;startSize=20;horizontal=0;" parent="MH0iUW0ZGjXXIb8IeGr6-98" vertex="1">
          <mxGeometry y="351" width="1430" height="119" as="geometry" />
        </mxCell>
        <mxCell id="MH0iUW0ZGjXXIb8IeGr6-163" value="" style="points=[[0.145,0.145,0],[0.5,0,0],[0.855,0.145,0],[1,0.5,0],[0.855,0.855,0],[0.5,1,0],[0.145,0.855,0],[0,0.5,0]];shape=mxgraph.bpmn.event;html=1;verticalLabelPosition=bottom;labelBackgroundColor=#ffffff;verticalAlign=top;align=center;perimeter=ellipsePerimeter;outlineConnect=0;aspect=fixed;outline=standard;symbol=message;" parent="MH0iUW0ZGjXXIb8IeGr6-126" vertex="1">
          <mxGeometry x="990" y="29" width="50" height="50" as="geometry" />
        </mxCell>
        <mxCell id="MH0iUW0ZGjXXIb8IeGr6-165" value="Запит на імпорт файлів" style="text;html=1;strokeColor=none;fillColor=none;align=center;verticalAlign=middle;whiteSpace=wrap;rounded=0;" parent="MH0iUW0ZGjXXIb8IeGr6-126" vertex="1">
          <mxGeometry x="830" y="19" width="110" height="41" as="geometry" />
        </mxCell>
        <mxCell id="MH0iUW0ZGjXXIb8IeGr6-167" value="Збереження файлів користувача" style="points=[[0.25,0,0],[0.5,0,0],[0.75,0,0],[1,0.25,0],[1,0.5,0],[1,0.75,0],[0.75,1,0],[0.5,1,0],[0.25,1,0],[0,0.75,0],[0,0.5,0],[0,0.25,0]];shape=mxgraph.bpmn.task;whiteSpace=wrap;rectStyle=rounded;size=10;html=1;container=1;expand=0;collapsible=0;taskMarker=abstract;" parent="MH0iUW0ZGjXXIb8IeGr6-126" vertex="1">
          <mxGeometry x="1080" y="14" width="120" height="80" as="geometry" />
        </mxCell>
        <mxCell id="MH0iUW0ZGjXXIb8IeGr6-168" style="edgeStyle=orthogonalEdgeStyle;rounded=0;orthogonalLoop=1;jettySize=auto;html=1;entryX=0;entryY=0.5;entryDx=0;entryDy=0;entryPerimeter=0;" parent="MH0iUW0ZGjXXIb8IeGr6-126" source="MH0iUW0ZGjXXIb8IeGr6-163" target="MH0iUW0ZGjXXIb8IeGr6-167" edge="1">
          <mxGeometry relative="1" as="geometry" />
        </mxCell>
        <mxCell id="MH0iUW0ZGjXXIb8IeGr6-204" value="" style="shape=datastore;html=1;labelPosition=center;verticalLabelPosition=bottom;align=center;verticalAlign=top;" parent="1" vertex="1">
          <mxGeometry x="3090" y="1220" width="100" height="100" as="geometry" />
        </mxCell>
        <mxCell id="MH0iUW0ZGjXXIb8IeGr6-205" style="edgeStyle=orthogonalEdgeStyle;rounded=0;orthogonalLoop=1;jettySize=auto;html=1;entryX=0.5;entryY=0;entryDx=0;entryDy=0;" parent="1" source="MH0iUW0ZGjXXIb8IeGr6-167" target="MH0iUW0ZGjXXIb8IeGr6-204" edge="1">
          <mxGeometry relative="1" as="geometry" />
        </mxCell>
        <mxCell id="MH0iUW0ZGjXXIb8IeGr6-206" value="GridFS storage" style="text;html=1;strokeColor=none;fillColor=none;align=center;verticalAlign=middle;whiteSpace=wrap;rounded=0;" parent="1" vertex="1">
          <mxGeometry x="3100" y="1270" width="80" height="30" as="geometry" />
        </mxCell>
        <mxCell id="MH0iUW0ZGjXXIb8IeGr6-207" value="Гість" style="shape=umlActor;verticalLabelPosition=bottom;verticalAlign=top;html=1;" parent="1" vertex="1">
          <mxGeometry x="2341" y="2358" width="30" height="60" as="geometry" />
        </mxCell>
        <mxCell id="MH0iUW0ZGjXXIb8IeGr6-209" value="Увійти до системи через Google" style="ellipse;whiteSpace=wrap;html=1;" parent="1" vertex="1">
          <mxGeometry x="2481" y="2338" width="160" height="70" as="geometry" />
        </mxCell>
        <mxCell id="MH0iUW0ZGjXXIb8IeGr6-212" value="Авторизований&amp;nbsp;&lt;div&gt;користувач&lt;/div&gt;" style="shape=umlActor;verticalLabelPosition=bottom;verticalAlign=top;html=1;" parent="1" vertex="1">
          <mxGeometry x="2330" y="1760" width="30" height="60" as="geometry" />
        </mxCell>
        <mxCell id="MH0iUW0ZGjXXIb8IeGr6-213" value="Перегляд власного профілю" style="ellipse;whiteSpace=wrap;html=1;" parent="1" vertex="1">
          <mxGeometry x="2580" y="1670" width="160" height="70" as="geometry" />
        </mxCell>
        <mxCell id="MH0iUW0ZGjXXIb8IeGr6-215" value="" style="endArrow=none;html=1;rounded=0;exitX=1;exitY=0.3333333333333333;exitDx=0;exitDy=0;exitPerimeter=0;entryX=0;entryY=1;entryDx=0;entryDy=0;" parent="1" source="MH0iUW0ZGjXXIb8IeGr6-212" target="MH0iUW0ZGjXXIb8IeGr6-213" edge="1">
          <mxGeometry width="50" height="50" relative="1" as="geometry">
            <mxPoint x="2500" y="1790" as="sourcePoint" />
            <mxPoint x="2550" y="1740" as="targetPoint" />
          </mxGeometry>
        </mxCell>
        <mxCell id="MH0iUW0ZGjXXIb8IeGr6-216" value="" style="endArrow=none;html=1;rounded=0;exitX=1;exitY=0.3333333333333333;exitDx=0;exitDy=0;exitPerimeter=0;entryX=0;entryY=0.5;entryDx=0;entryDy=0;" parent="1" source="MH0iUW0ZGjXXIb8IeGr6-207" target="MH0iUW0ZGjXXIb8IeGr6-209" edge="1">
          <mxGeometry width="50" height="50" relative="1" as="geometry">
            <mxPoint x="2371" y="2483" as="sourcePoint" />
            <mxPoint x="2501" y="2418" as="targetPoint" />
          </mxGeometry>
        </mxCell>
        <mxCell id="MH0iUW0ZGjXXIb8IeGr6-218" value="Вийти з системи" style="ellipse;whiteSpace=wrap;html=1;" parent="1" vertex="1">
          <mxGeometry x="2800" y="1700" width="160" height="70" as="geometry" />
        </mxCell>
        <mxCell id="MH0iUW0ZGjXXIb8IeGr6-220" value="" style="endArrow=none;html=1;rounded=0;exitX=1;exitY=0.3333333333333333;exitDx=0;exitDy=0;exitPerimeter=0;entryX=0;entryY=0.5;entryDx=0;entryDy=0;" parent="1" source="MH0iUW0ZGjXXIb8IeGr6-212" target="MH0iUW0ZGjXXIb8IeGr6-218" edge="1">
          <mxGeometry width="50" height="50" relative="1" as="geometry">
            <mxPoint x="2500" y="1850" as="sourcePoint" />
            <mxPoint x="2610" y="1745" as="targetPoint" />
          </mxGeometry>
        </mxCell>
        <mxCell id="MH0iUW0ZGjXXIb8IeGr6-221" value="Створення файлу" style="ellipse;whiteSpace=wrap;html=1;" parent="1" vertex="1">
          <mxGeometry x="2760" y="1800" width="160" height="70" as="geometry" />
        </mxCell>
        <mxCell id="MH0iUW0ZGjXXIb8IeGr6-222" value="" style="endArrow=none;html=1;rounded=0;entryX=0;entryY=0.5;entryDx=0;entryDy=0;exitX=1;exitY=0.3333333333333333;exitDx=0;exitDy=0;exitPerimeter=0;" parent="1" source="MH0iUW0ZGjXXIb8IeGr6-212" target="MH0iUW0ZGjXXIb8IeGr6-221" edge="1">
          <mxGeometry width="50" height="50" relative="1" as="geometry">
            <mxPoint x="2530" y="1880" as="sourcePoint" />
            <mxPoint x="2820" y="1764" as="targetPoint" />
          </mxGeometry>
        </mxCell>
        <mxCell id="MH0iUW0ZGjXXIb8IeGr6-223" value="Імпорт файлу з Google Drive" style="ellipse;whiteSpace=wrap;html=1;" parent="1" vertex="1">
          <mxGeometry x="3010" y="1730" width="160" height="70" as="geometry" />
        </mxCell>
        <mxCell id="MH0iUW0ZGjXXIb8IeGr6-224" value="" style="endArrow=none;html=1;rounded=0;exitX=1;exitY=0;exitDx=0;exitDy=0;entryX=0;entryY=0.5;entryDx=0;entryDy=0;startArrow=block;startFill=0;" parent="1" source="MH0iUW0ZGjXXIb8IeGr6-221" target="MH0iUW0ZGjXXIb8IeGr6-223" edge="1">
          <mxGeometry width="50" height="50" relative="1" as="geometry">
            <mxPoint x="2890" y="1970" as="sourcePoint" />
            <mxPoint x="2940" y="1920" as="targetPoint" />
          </mxGeometry>
        </mxCell>
        <mxCell id="MH0iUW0ZGjXXIb8IeGr6-225" value="Extends" style="edgeLabel;html=1;align=center;verticalAlign=middle;resizable=0;points=[];" parent="MH0iUW0ZGjXXIb8IeGr6-224" vertex="1" connectable="0">
          <mxGeometry x="0.0391" y="3" relative="1" as="geometry">
            <mxPoint as="offset" />
          </mxGeometry>
        </mxCell>
        <mxCell id="MH0iUW0ZGjXXIb8IeGr6-226" value="Завантаження файлу з комп&#39;ютера" style="ellipse;whiteSpace=wrap;html=1;" parent="1" vertex="1">
          <mxGeometry x="3010" y="1860" width="160" height="70" as="geometry" />
        </mxCell>
        <mxCell id="MH0iUW0ZGjXXIb8IeGr6-227" value="" style="endArrow=none;html=1;rounded=0;exitX=1;exitY=1;exitDx=0;exitDy=0;entryX=0;entryY=0.5;entryDx=0;entryDy=0;startArrow=block;startFill=0;" parent="1" source="MH0iUW0ZGjXXIb8IeGr6-221" target="MH0iUW0ZGjXXIb8IeGr6-226" edge="1">
          <mxGeometry width="50" height="50" relative="1" as="geometry">
            <mxPoint x="2880" y="1855" as="sourcePoint" />
            <mxPoint x="3000" y="1815" as="targetPoint" />
          </mxGeometry>
        </mxCell>
        <mxCell id="MH0iUW0ZGjXXIb8IeGr6-228" value="Extends" style="edgeLabel;html=1;align=center;verticalAlign=middle;resizable=0;points=[];" parent="MH0iUW0ZGjXXIb8IeGr6-227" vertex="1" connectable="0">
          <mxGeometry x="0.0391" y="3" relative="1" as="geometry">
            <mxPoint as="offset" />
          </mxGeometry>
        </mxCell>
        <mxCell id="MH0iUW0ZGjXXIb8IeGr6-229" value="" style="endArrow=none;html=1;rounded=0;exitX=1;exitY=0.3333333333333333;exitDx=0;exitDy=0;exitPerimeter=0;entryX=0;entryY=0;entryDx=0;entryDy=0;" parent="1" source="MH0iUW0ZGjXXIb8IeGr6-212" target="MH0iUW0ZGjXXIb8IeGr6-230" edge="1">
          <mxGeometry width="50" height="50" relative="1" as="geometry">
            <mxPoint x="2670" y="1940" as="sourcePoint" />
            <mxPoint x="2610" y="1890" as="targetPoint" />
          </mxGeometry>
        </mxCell>
        <mxCell id="MH0iUW0ZGjXXIb8IeGr6-230" value="Створення папки" style="ellipse;whiteSpace=wrap;html=1;" parent="1" vertex="1">
          <mxGeometry x="2670" y="1880" width="160" height="70" as="geometry" />
        </mxCell>
        <mxCell id="MH0iUW0ZGjXXIb8IeGr6-261" value="Програвання файлу онлайн" style="ellipse;whiteSpace=wrap;html=1;" parent="1" vertex="1">
          <mxGeometry x="2830" y="2050" width="160" height="70" as="geometry" />
        </mxCell>
        <mxCell id="MH0iUW0ZGjXXIb8IeGr6-262" value="" style="endArrow=none;html=1;rounded=0;entryX=0.195;entryY=0.119;entryDx=0;entryDy=0;entryPerimeter=0;exitX=1;exitY=0.3333333333333333;exitDx=0;exitDy=0;exitPerimeter=0;" parent="1" source="MH0iUW0ZGjXXIb8IeGr6-212" target="MH0iUW0ZGjXXIb8IeGr6-261" edge="1">
          <mxGeometry width="50" height="50" relative="1" as="geometry">
            <mxPoint x="2600" y="1980" as="sourcePoint" />
            <mxPoint x="2593" y="1950" as="targetPoint" />
          </mxGeometry>
        </mxCell>
        <mxCell id="MH0iUW0ZGjXXIb8IeGr6-281" value="Видалення файлу/директорії" style="ellipse;whiteSpace=wrap;html=1;" parent="1" vertex="1">
          <mxGeometry x="2481" y="1950" width="160" height="70" as="geometry" />
        </mxCell>
        <mxCell id="MH0iUW0ZGjXXIb8IeGr6-282" value="" style="endArrow=none;html=1;rounded=0;entryX=0.5;entryY=0;entryDx=0;entryDy=0;exitX=1;exitY=0.3333333333333333;exitDx=0;exitDy=0;exitPerimeter=0;" parent="1" source="MH0iUW0ZGjXXIb8IeGr6-212" target="MH0iUW0ZGjXXIb8IeGr6-281" edge="1">
          <mxGeometry width="50" height="50" relative="1" as="geometry">
            <mxPoint x="2500" y="1950" as="sourcePoint" />
            <mxPoint x="2621" y="1938" as="targetPoint" />
          </mxGeometry>
        </mxCell>
        <mxCell id="MH0iUW0ZGjXXIb8IeGr6-297" value="" style="rounded=0;whiteSpace=wrap;html=1;fillColor=default;fillStyle=dashed;dashed=1;" parent="1" vertex="1">
          <mxGeometry x="2415" y="1525" width="795" height="620" as="geometry" />
        </mxCell>
        <mxCell id="MH0iUW0ZGjXXIb8IeGr6-298" value="&lt;font style=&quot;font-size: 18px;&quot;&gt;Діаграма варіантів використання для користувачів системи Kexit Drive&amp;nbsp;&lt;/font&gt;" style="text;html=1;align=center;verticalAlign=middle;whiteSpace=wrap;rounded=0;" parent="1" vertex="1">
          <mxGeometry x="2980" y="1570" width="170" height="70" as="geometry" />
        </mxCell>
        <mxCell id="MH0iUW0ZGjXXIb8IeGr6-299" value="" style="rounded=0;whiteSpace=wrap;html=1;fillColor=none;fillStyle=dashed;dashed=1;" parent="1" vertex="1">
          <mxGeometry x="2461" y="2297" width="200" height="152" as="geometry" />
        </mxCell>
        <mxCell id="MH0iUW0ZGjXXIb8IeGr6-300" value="" style="endArrow=none;html=1;rounded=0;exitX=1;exitY=0.3333333333333333;exitDx=0;exitDy=0;exitPerimeter=0;entryX=0;entryY=0;entryDx=0;entryDy=0;" parent="1" source="MH0iUW0ZGjXXIb8IeGr6-212" target="MH0iUW0ZGjXXIb8IeGr6-302" edge="1">
          <mxGeometry width="50" height="50" relative="1" as="geometry">
            <mxPoint x="2280" y="1970" as="sourcePoint" />
            <mxPoint x="2520" y="2080" as="targetPoint" />
          </mxGeometry>
        </mxCell>
        <mxCell id="MH0iUW0ZGjXXIb8IeGr6-302" value="Переміщення файлів/папок між папками" style="ellipse;whiteSpace=wrap;html=1;" parent="1" vertex="1">
          <mxGeometry x="2480" y="2065" width="171" height="70" as="geometry" />
        </mxCell>
      </root>
    </mxGraphModel>
  </diagram>
  <diagram id="irZI91RY4cBic0584KCD" name="Страница — 2">
    <mxGraphModel dx="1650" dy="-272" grid="1" gridSize="10" guides="1" tooltips="1" connect="1" arrows="1" fold="1" page="1" pageScale="1" pageWidth="827" pageHeight="1169" math="0" shadow="0">
      <root>
        <mxCell id="0" />
        <mxCell id="1" parent="0" />
        <mxCell id="3Hl0E0G8y-V89J3sh5c7-1" value="&lt;font style=&quot;font-size: 14px;&quot;&gt;Docker container&lt;/font&gt;" style="verticalAlign=top;align=left;spacingTop=8;spacingLeft=2;spacingRight=12;shape=cube;size=10;direction=south;fontStyle=4;html=1;whiteSpace=wrap;fillColor=#e1d5e7;strokeColor=#9673a6;" vertex="1" parent="1">
          <mxGeometry x="70" y="1516.5" width="340" height="297" as="geometry" />
        </mxCell>
        <mxCell id="3Hl0E0G8y-V89J3sh5c7-2" value="&lt;font style=&quot;font-size: 14px;&quot;&gt;OS Linux Alpine&lt;/font&gt;" style="verticalAlign=top;align=left;spacingTop=8;spacingLeft=2;spacingRight=12;shape=cube;size=10;direction=south;fontStyle=4;html=1;whiteSpace=wrap;" vertex="1" parent="1">
          <mxGeometry x="80" y="1569.5" width="310" height="231" as="geometry" />
        </mxCell>
        <mxCell id="3Hl0E0G8y-V89J3sh5c7-3" value="&lt;font style=&quot;font-size: 18px;&quot;&gt;«component»&lt;br&gt;&lt;b style=&quot;&quot;&gt;Frontend&lt;/b&gt;&lt;/font&gt;" style="html=1;dropTarget=0;whiteSpace=wrap;" vertex="1" parent="1">
          <mxGeometry x="90" y="1627.5" width="280" height="159" as="geometry" />
        </mxCell>
        <mxCell id="3Hl0E0G8y-V89J3sh5c7-4" value="" style="shape=module;jettyWidth=8;jettyHeight=4;" vertex="1" parent="3Hl0E0G8y-V89J3sh5c7-3">
          <mxGeometry x="1" width="20" height="20" relative="1" as="geometry">
            <mxPoint x="-27" y="7" as="offset" />
          </mxGeometry>
        </mxCell>
        <mxCell id="3Hl0E0G8y-V89J3sh5c7-5" value="&lt;font style=&quot;font-size: 14px;&quot;&gt;Docker container&lt;/font&gt;" style="verticalAlign=top;align=left;spacingTop=8;spacingLeft=2;spacingRight=12;shape=cube;size=10;direction=south;fontStyle=4;html=1;whiteSpace=wrap;fillColor=#dae8fc;strokeColor=#6c8ebf;" vertex="1" parent="1">
          <mxGeometry x="550" y="1506.5" width="340" height="297" as="geometry" />
        </mxCell>
        <mxCell id="3Hl0E0G8y-V89J3sh5c7-6" value="&lt;font style=&quot;font-size: 14px;&quot;&gt;OS Linux Alpine&lt;/font&gt;" style="verticalAlign=top;align=left;spacingTop=8;spacingLeft=2;spacingRight=12;shape=cube;size=10;direction=south;fontStyle=4;html=1;whiteSpace=wrap;" vertex="1" parent="1">
          <mxGeometry x="560" y="1559.5" width="310" height="231" as="geometry" />
        </mxCell>
        <mxCell id="3Hl0E0G8y-V89J3sh5c7-7" value="&lt;font style=&quot;font-size: 18px;&quot;&gt;«component»&lt;br&gt;&lt;b style=&quot;&quot;&gt;Core&lt;/b&gt;&lt;/font&gt;" style="html=1;dropTarget=0;whiteSpace=wrap;" vertex="1" parent="1">
          <mxGeometry x="570" y="1617.5" width="280" height="159" as="geometry" />
        </mxCell>
        <mxCell id="3Hl0E0G8y-V89J3sh5c7-8" value="" style="shape=module;jettyWidth=8;jettyHeight=4;" vertex="1" parent="3Hl0E0G8y-V89J3sh5c7-7">
          <mxGeometry x="1" width="20" height="20" relative="1" as="geometry">
            <mxPoint x="-27" y="7" as="offset" />
          </mxGeometry>
        </mxCell>
        <mxCell id="3Hl0E0G8y-V89J3sh5c7-9" style="edgeStyle=orthogonalEdgeStyle;rounded=0;orthogonalLoop=1;jettySize=auto;html=1;endArrow=none;endFill=0;" edge="1" parent="1" source="3Hl0E0G8y-V89J3sh5c7-10" target="3Hl0E0G8y-V89J3sh5c7-7">
          <mxGeometry relative="1" as="geometry" />
        </mxCell>
        <mxCell id="3Hl0E0G8y-V89J3sh5c7-10" value="" style="shape=providedRequiredInterface;html=1;verticalLabelPosition=bottom;sketch=0;rotation=-180;" vertex="1" parent="1">
          <mxGeometry x="470" y="1686.5" width="20" height="20" as="geometry" />
        </mxCell>
        <mxCell id="3Hl0E0G8y-V89J3sh5c7-11" style="edgeStyle=orthogonalEdgeStyle;rounded=0;orthogonalLoop=1;jettySize=auto;html=1;entryX=1;entryY=0.434;entryDx=0;entryDy=0;entryPerimeter=0;endArrow=none;endFill=0;" edge="1" parent="1" source="3Hl0E0G8y-V89J3sh5c7-10" target="3Hl0E0G8y-V89J3sh5c7-3">
          <mxGeometry relative="1" as="geometry" />
        </mxCell>
        <mxCell id="3Hl0E0G8y-V89J3sh5c7-12" value="&lt;font style=&quot;font-size: 14px;&quot;&gt;Docker container&lt;/font&gt;" style="verticalAlign=top;align=left;spacingTop=8;spacingLeft=2;spacingRight=12;shape=cube;size=10;direction=south;fontStyle=4;html=1;whiteSpace=wrap;fillColor=#f8cecc;strokeColor=#b85450;" vertex="1" parent="1">
          <mxGeometry x="1210" y="1315" width="340" height="297" as="geometry" />
        </mxCell>
        <mxCell id="3Hl0E0G8y-V89J3sh5c7-13" value="&lt;font style=&quot;font-size: 14px;&quot;&gt;OS Linux Alpine&lt;/font&gt;" style="verticalAlign=top;align=left;spacingTop=8;spacingLeft=2;spacingRight=12;shape=cube;size=10;direction=south;fontStyle=4;html=1;whiteSpace=wrap;" vertex="1" parent="1">
          <mxGeometry x="1220" y="1368" width="310" height="231" as="geometry" />
        </mxCell>
        <mxCell id="3Hl0E0G8y-V89J3sh5c7-14" value="&lt;font style=&quot;font-size: 18px;&quot;&gt;«component»&lt;br&gt;&lt;b&gt;Converter-X&lt;/b&gt;&lt;/font&gt;" style="html=1;dropTarget=0;whiteSpace=wrap;" vertex="1" parent="1">
          <mxGeometry x="1230" y="1426" width="280" height="159" as="geometry" />
        </mxCell>
        <mxCell id="3Hl0E0G8y-V89J3sh5c7-15" value="" style="shape=module;jettyWidth=8;jettyHeight=4;" vertex="1" parent="3Hl0E0G8y-V89J3sh5c7-14">
          <mxGeometry x="1" width="20" height="20" relative="1" as="geometry">
            <mxPoint x="-27" y="7" as="offset" />
          </mxGeometry>
        </mxCell>
        <mxCell id="3Hl0E0G8y-V89J3sh5c7-16" value="&lt;font style=&quot;font-size: 14px;&quot;&gt;Docker container&lt;/font&gt;" style="verticalAlign=top;align=left;spacingTop=8;spacingLeft=2;spacingRight=12;shape=cube;size=10;direction=south;fontStyle=4;html=1;whiteSpace=wrap;fillColor=#d5e8d4;strokeColor=#82b366;" vertex="1" parent="1">
          <mxGeometry x="310" y="1946.5" width="340" height="297" as="geometry" />
        </mxCell>
        <mxCell id="3Hl0E0G8y-V89J3sh5c7-17" value="&lt;font style=&quot;font-size: 14px;&quot;&gt;OS Linux Alpine&lt;/font&gt;" style="verticalAlign=top;align=left;spacingTop=8;spacingLeft=2;spacingRight=12;shape=cube;size=10;direction=south;fontStyle=4;html=1;whiteSpace=wrap;" vertex="1" parent="1">
          <mxGeometry x="320" y="1999.5" width="310" height="231" as="geometry" />
        </mxCell>
        <mxCell id="3Hl0E0G8y-V89J3sh5c7-18" value="&lt;span style=&quot;font-size: 24px;&quot;&gt;MongoDB&lt;/span&gt;" style="shape=datastore;whiteSpace=wrap;html=1;" vertex="1" parent="1">
          <mxGeometry x="410" y="2068.5" width="140" height="130" as="geometry" />
        </mxCell>
        <mxCell id="3Hl0E0G8y-V89J3sh5c7-19" value="" style="endArrow=none;html=1;rounded=0;exitX=1;exitY=0.5;exitDx=0;exitDy=0;exitPerimeter=0;entryX=0.5;entryY=1;entryDx=0;entryDy=0;" edge="1" parent="1" source="3Hl0E0G8y-V89J3sh5c7-35" target="3Hl0E0G8y-V89J3sh5c7-7">
          <mxGeometry width="50" height="50" relative="1" as="geometry">
            <mxPoint x="619.0710678118658" y="1869.4289321881342" as="sourcePoint" />
            <mxPoint x="850" y="1986.5" as="targetPoint" />
          </mxGeometry>
        </mxCell>
        <mxCell id="3Hl0E0G8y-V89J3sh5c7-20" value="" style="endArrow=none;html=1;rounded=0;exitX=0;exitY=0;exitDx=0;exitDy=150;exitPerimeter=0;entryX=0;entryY=0.5;entryDx=0;entryDy=0;entryPerimeter=0;" edge="1" parent="1" source="3Hl0E0G8y-V89J3sh5c7-17" target="3Hl0E0G8y-V89J3sh5c7-35">
          <mxGeometry width="50" height="50" relative="1" as="geometry">
            <mxPoint x="710" y="1986.5" as="sourcePoint" />
            <mxPoint x="604.9289321881342" y="1883.5710678118658" as="targetPoint" />
          </mxGeometry>
        </mxCell>
        <mxCell id="3Hl0E0G8y-V89J3sh5c7-21" value="&lt;font style=&quot;font-size: 14px;&quot;&gt;Docker container&lt;/font&gt;" style="verticalAlign=top;align=left;spacingTop=8;spacingLeft=2;spacingRight=12;shape=cube;size=10;direction=south;fontStyle=4;html=1;whiteSpace=wrap;fillColor=#ffe6cc;strokeColor=#d79b00;" vertex="1" parent="1">
          <mxGeometry x="807" y="1946.5" width="340" height="297" as="geometry" />
        </mxCell>
        <mxCell id="3Hl0E0G8y-V89J3sh5c7-22" value="&lt;font style=&quot;font-size: 14px;&quot;&gt;OS Linux Alpine&lt;/font&gt;" style="verticalAlign=top;align=left;spacingTop=8;spacingLeft=2;spacingRight=12;shape=cube;size=10;direction=south;fontStyle=4;html=1;whiteSpace=wrap;" vertex="1" parent="1">
          <mxGeometry x="817" y="1999.5" width="310" height="231" as="geometry" />
        </mxCell>
        <mxCell id="3Hl0E0G8y-V89J3sh5c7-23" value="" style="shape=datastore;whiteSpace=wrap;html=1;rotation=90;" vertex="1" parent="1">
          <mxGeometry x="899.85" y="1997.7799999999997" width="140" height="271.68" as="geometry" />
        </mxCell>
        <mxCell id="3Hl0E0G8y-V89J3sh5c7-24" value="" style="endArrow=none;html=1;rounded=0;exitX=1;exitY=0.5;exitDx=0;exitDy=0;exitPerimeter=0;entryX=0.5;entryY=1;entryDx=0;entryDy=0;" edge="1" parent="1" source="3Hl0E0G8y-V89J3sh5c7-36" target="3Hl0E0G8y-V89J3sh5c7-7">
          <mxGeometry width="50" height="50" relative="1" as="geometry">
            <mxPoint x="815.9289321881345" y="1869.4289321881342" as="sourcePoint" />
            <mxPoint x="720" y="1786.5" as="targetPoint" />
          </mxGeometry>
        </mxCell>
        <mxCell id="3Hl0E0G8y-V89J3sh5c7-25" value="" style="endArrow=none;html=1;rounded=0;exitX=0;exitY=0;exitDx=0;exitDy=150;exitPerimeter=0;entryX=0;entryY=0.5;entryDx=0;entryDy=0;entryPerimeter=0;" edge="1" parent="1" source="3Hl0E0G8y-V89J3sh5c7-22" target="3Hl0E0G8y-V89J3sh5c7-36">
          <mxGeometry width="50" height="50" relative="1" as="geometry">
            <mxPoint x="490" y="2009.5" as="sourcePoint" />
            <mxPoint x="830.0710678118655" y="1883.5710678118653" as="targetPoint" />
          </mxGeometry>
        </mxCell>
        <mxCell id="3Hl0E0G8y-V89J3sh5c7-26" value="&lt;font style=&quot;font-size: 24px;&quot;&gt;RabbitMQ&lt;/font&gt;" style="text;html=1;align=center;verticalAlign=middle;whiteSpace=wrap;rounded=0;" vertex="1" parent="1">
          <mxGeometry x="870" y="2122.5" width="130" height="38" as="geometry" />
        </mxCell>
        <mxCell id="3Hl0E0G8y-V89J3sh5c7-27" value="&lt;font style=&quot;font-size: 14px;&quot;&gt;Docker container&lt;/font&gt;" style="verticalAlign=top;align=left;spacingTop=8;spacingLeft=2;spacingRight=12;shape=cube;size=10;direction=south;fontStyle=4;html=1;whiteSpace=wrap;fillColor=#f8cecc;strokeColor=#b85450;" vertex="1" parent="1">
          <mxGeometry x="1220" y="1702.5" width="340" height="297" as="geometry" />
        </mxCell>
        <mxCell id="3Hl0E0G8y-V89J3sh5c7-28" value="&lt;font style=&quot;font-size: 14px;&quot;&gt;OS Linux Alpine&lt;/font&gt;" style="verticalAlign=top;align=left;spacingTop=8;spacingLeft=2;spacingRight=12;shape=cube;size=10;direction=south;fontStyle=4;html=1;whiteSpace=wrap;" vertex="1" parent="1">
          <mxGeometry x="1230" y="1755.5" width="310" height="231" as="geometry" />
        </mxCell>
        <mxCell id="3Hl0E0G8y-V89J3sh5c7-29" value="&lt;font style=&quot;font-size: 18px;&quot;&gt;«component»&lt;br&gt;&lt;b&gt;Converter-X&lt;/b&gt;&lt;/font&gt;" style="html=1;dropTarget=0;whiteSpace=wrap;" vertex="1" parent="1">
          <mxGeometry x="1240" y="1813.5" width="280" height="159" as="geometry" />
        </mxCell>
        <mxCell id="3Hl0E0G8y-V89J3sh5c7-30" value="" style="shape=module;jettyWidth=8;jettyHeight=4;" vertex="1" parent="3Hl0E0G8y-V89J3sh5c7-29">
          <mxGeometry x="1" width="20" height="20" relative="1" as="geometry">
            <mxPoint x="-27" y="7" as="offset" />
          </mxGeometry>
        </mxCell>
        <mxCell id="3Hl0E0G8y-V89J3sh5c7-31" value="" style="rounded=0;whiteSpace=wrap;html=1;dashed=1;fillColor=none;" vertex="1" parent="1">
          <mxGeometry x="1162.5" y="1290" width="455" height="750" as="geometry" />
        </mxCell>
        <mxCell id="3Hl0E0G8y-V89J3sh5c7-32" value="" style="shape=providedRequiredInterface;html=1;verticalLabelPosition=bottom;sketch=0;rotation=-179;" vertex="1" parent="1">
          <mxGeometry x="1056" y="1687" width="20" height="20" as="geometry" />
        </mxCell>
        <mxCell id="3Hl0E0G8y-V89J3sh5c7-33" value="" style="endArrow=none;html=1;rounded=0;exitX=0;exitY=0.5;exitDx=0;exitDy=0;exitPerimeter=0;entryX=0;entryY=0;entryDx=153.5;entryDy=340;entryPerimeter=0;" edge="1" parent="1" source="3Hl0E0G8y-V89J3sh5c7-32" target="3Hl0E0G8y-V89J3sh5c7-27">
          <mxGeometry width="50" height="50" relative="1" as="geometry">
            <mxPoint x="1053" y="1860.5" as="sourcePoint" />
            <mxPoint x="970" y="1476.5" as="targetPoint" />
          </mxGeometry>
        </mxCell>
        <mxCell id="3Hl0E0G8y-V89J3sh5c7-34" value="" style="endArrow=none;html=1;rounded=0;exitX=1;exitY=0.5;exitDx=0;exitDy=0;entryX=1;entryY=0.5;entryDx=0;entryDy=0;entryPerimeter=0;" edge="1" parent="1" source="3Hl0E0G8y-V89J3sh5c7-7" target="3Hl0E0G8y-V89J3sh5c7-32">
          <mxGeometry width="50" height="50" relative="1" as="geometry">
            <mxPoint x="1220" y="1813.5" as="sourcePoint" />
            <mxPoint x="1013" y="1760.5" as="targetPoint" />
          </mxGeometry>
        </mxCell>
        <mxCell id="3Hl0E0G8y-V89J3sh5c7-35" value="" style="shape=providedRequiredInterface;html=1;verticalLabelPosition=bottom;sketch=0;rotation=-40;" vertex="1" parent="1">
          <mxGeometry x="600" y="1866.5" width="20" height="20" as="geometry" />
        </mxCell>
        <mxCell id="3Hl0E0G8y-V89J3sh5c7-36" value="" style="shape=providedRequiredInterface;html=1;verticalLabelPosition=bottom;sketch=0;rotation=-135;" vertex="1" parent="1">
          <mxGeometry x="817" y="1866.5" width="20" height="20" as="geometry" />
        </mxCell>
        <mxCell id="3Hl0E0G8y-V89J3sh5c7-37" value="" style="endArrow=none;html=1;rounded=0;entryX=0;entryY=0;entryDx=153.5;entryDy=340;entryPerimeter=0;exitX=0;exitY=0.5;exitDx=0;exitDy=0;exitPerimeter=0;" edge="1" parent="1" source="3Hl0E0G8y-V89J3sh5c7-32" target="3Hl0E0G8y-V89J3sh5c7-12">
          <mxGeometry width="50" height="50" relative="1" as="geometry">
            <mxPoint x="1140" y="1646.5" as="sourcePoint" />
            <mxPoint x="1220" y="1813.5" as="targetPoint" />
          </mxGeometry>
        </mxCell>
      </root>
    </mxGraphModel>
  </diagram>
</mxfile>
